<svg width="409" height="250" viewBox="0 0 409 250" fill="none" xmlns="http://www.w3.org/2000/svg">
<g filter="url(#filter0_d_558_488)">
<g clip-path="url(#clip0_558_488)">
<rect x="45" y="41" width="319" height="160" rx="16" fill="white"/>
<path d="M100.364 126.89C26.937 153.876 -37.2013 68.0533 -98.6855 95.4811C-135.399 104.329 -209.534 122.997 -212.365 126.89C-215.196 130.783 -217.968 216.989 -219 259.605L326.396 349.409C363.552 303.549 427.336 198.733 385.226 146.355C332.589 80.8824 173.791 99.9049 100.364 126.89Z" fill="#34A853"/>
<path d="M197.557 123.008C134.278 140.829 43.1677 87.9457 -8.50024 111C-39.3523 118.437 -62.8637 119.736 -65.2427 123.008C-67.6216 126.28 -69.951 198.74 -70.8184 234.561L387.502 310.045C418.726 271.498 472.327 183.395 436.94 139.369C392.706 84.3363 261.5 105 197.557 123.008Z" fill="url(#paint0_linear_558_488)"/>
<g opacity="0.3" filter="url(#filter1_f_558_488)">
<rect x="73" y="160" width="76" height="24" rx="12" fill="#3190E8"/>
</g>
<path d="M243.489 102.041C243.489 102.041 243.489 100.945 241.954 99.4109C240.42 97.8765 239.433 97 239.433 97C239.433 97 238.665 99.5211 240.091 101.056C241.517 102.59 243.489 104.016 243.489 104.016V102.041Z" fill="#34A853"/>
<path d="M241.262 108.886C241.262 108.886 241.262 107.791 239.728 106.256C238.193 104.722 237.207 103.845 237.207 103.845C237.207 103.845 236.439 106.366 237.864 107.903C239.29 109.439 241.262 110.863 241.262 110.863V108.886Z" fill="#34A853"/>
<path d="M243.392 103.907C243.392 103.907 243.508 102.817 245.197 101.453C246.886 100.089 247.952 99.3231 247.952 99.3231C247.952 99.3231 248.45 101.906 246.871 103.284C245.292 104.662 243.179 105.867 243.179 105.867L243.392 103.907Z" fill="#34A853"/>
<path d="M240.702 111.993C240.702 111.993 240.931 110.921 242.753 109.742C244.575 108.562 245.724 107.911 245.724 107.911C245.724 107.911 245.946 110.537 244.231 111.739C242.516 112.941 240.289 113.921 240.289 113.921L240.702 111.993Z" fill="#34A853"/>
<path d="M241.207 120.806C241.207 120.806 241.207 119.711 242.743 118.177C244.279 116.642 245.263 115.766 245.263 115.766C245.263 115.766 246.031 118.285 244.613 119.818C243.196 121.35 241.214 122.778 241.214 122.778L241.207 120.806Z" fill="#34A853"/>
<path d="M241.183 122.959C241.183 122.959 241.338 121.874 240.038 120.136C238.737 118.399 237.883 117.391 237.883 117.391C237.883 117.391 236.766 119.778 237.959 121.498C239.152 123.219 240.902 124.912 240.902 124.912L241.183 122.959Z" fill="#34A853"/>
<path d="M239.669 129.334C239.669 129.334 239.669 128.239 241.203 126.704C242.738 125.17 243.724 124.293 243.724 124.293C243.724 124.293 244.491 126.815 243.067 128.349C241.642 129.883 239.669 131.309 239.669 131.309V129.334Z" fill="#34A853"/>
<path d="M240.694 135.115C240.694 135.115 240.417 134.054 241.512 132.188C242.608 130.321 243.341 129.215 243.341 129.215C243.341 129.215 244.719 131.454 243.732 133.305C242.745 135.156 241.194 137.028 241.194 137.028L240.694 135.115Z" fill="#34A853"/>
<path d="M243.629 101.76C243.551 102.901 243.41 104.037 243.208 105.163C242.601 108.297 241.085 110.329 240.479 113.15C239.873 115.971 241.614 119.628 241.147 123.264C240.68 126.899 239.265 128.922 239.67 131.349C240.074 133.775 242.253 140.476 242.253 140.476" stroke="#263238" stroke-linecap="round" stroke-linejoin="round"/>
<path d="M243.377 104.636L245.032 103.367" stroke="#263238" stroke-linecap="round" stroke-linejoin="round"/>
<path d="M243.454 103.175L242.762 101.944" stroke="#263238" stroke-linecap="round" stroke-linejoin="round"/>
<path d="M240.569 113.021C240.569 113.021 241.947 111.987 243.376 110.944" stroke="#263238" stroke-linecap="round" stroke-linejoin="round"/>
<path d="M241.263 110.863C241.263 110.863 240.109 108.602 238.802 107.102" stroke="#263238" stroke-linecap="round" stroke-linejoin="round"/>
<path d="M241.262 122.366C242.052 120.91 243.05 119.575 244.224 118.406" stroke="#263238" stroke-linecap="round" stroke-linejoin="round"/>
<path d="M240.997 123.904C240.577 122.916 240.075 121.963 239.497 121.058C238.69 119.866 238.574 119.713 238.574 119.713" stroke="#263238" stroke-linecap="round" stroke-linejoin="round"/>
<path d="M239.669 131.356C240.019 130.485 240.436 129.642 240.916 128.835C241.394 128.082 241.935 127.37 242.531 126.706" stroke="#263238" stroke-linecap="round" stroke-linejoin="round"/>
<path d="M241.193 137.023C241.193 137.023 241.031 135.711 241.608 134.597C242.185 133.483 242.839 132.014 243.108 131.442" stroke="#263238" stroke-linecap="round" stroke-linejoin="round"/>
<path d="M250.489 125.041C250.489 125.041 250.489 123.945 248.954 122.411C247.42 120.877 246.433 120 246.433 120C246.433 120 245.665 122.521 247.091 124.056C248.517 125.59 250.489 127.016 250.489 127.016V125.041Z" fill="url(#paint1_linear_558_488)"/>
<path d="M248.262 131.886C248.262 131.886 248.262 130.791 246.728 129.256C245.193 127.722 244.207 126.845 244.207 126.845C244.207 126.845 243.439 129.366 244.864 130.903C246.29 132.439 248.262 133.863 248.262 133.863V131.886Z" fill="url(#paint2_linear_558_488)"/>
<path d="M250.392 126.907C250.392 126.907 250.508 125.817 252.197 124.453C253.886 123.089 254.952 122.323 254.952 122.323C254.952 122.323 255.45 124.906 253.871 126.284C252.292 127.662 250.179 128.867 250.179 128.867L250.392 126.907Z" fill="url(#paint3_linear_558_488)"/>
<path d="M247.702 134.993C247.702 134.993 247.931 133.921 249.753 132.742C251.575 131.562 252.724 130.911 252.724 130.911C252.724 130.911 252.946 133.537 251.231 134.739C249.516 135.941 247.289 136.921 247.289 136.921L247.702 134.993Z" fill="url(#paint4_linear_558_488)"/>
<path d="M248.207 143.806C248.207 143.806 248.207 142.711 249.743 141.177C251.279 139.642 252.263 138.766 252.263 138.766C252.263 138.766 253.031 141.285 251.613 142.818C250.196 144.35 248.214 145.778 248.214 145.778L248.207 143.806Z" fill="url(#paint5_linear_558_488)"/>
<path d="M248.183 145.959C248.183 145.959 248.338 144.874 247.038 143.136C245.737 141.399 244.883 140.391 244.883 140.391C244.883 140.391 243.766 142.778 244.959 144.498C246.152 146.219 247.902 147.912 247.902 147.912L248.183 145.959Z" fill="url(#paint6_linear_558_488)"/>
<path d="M246.669 152.334C246.669 152.334 246.669 151.239 248.203 149.704C249.738 148.17 250.724 147.293 250.724 147.293C250.724 147.293 251.491 149.815 250.067 151.349C248.642 152.883 246.669 154.309 246.669 154.309V152.334Z" fill="url(#paint7_linear_558_488)"/>
<path d="M247.694 158.115C247.694 158.115 247.417 157.054 248.512 155.188C249.608 153.321 250.341 152.215 250.341 152.215C250.341 152.215 251.719 154.454 250.732 156.305C249.745 158.156 248.194 160.028 248.194 160.028L247.694 158.115Z" fill="url(#paint8_linear_558_488)"/>
<path d="M250.629 124.76C250.551 125.901 250.41 127.037 250.208 128.163C249.601 131.297 248.085 133.329 247.479 136.15C246.873 138.971 248.614 142.628 248.147 146.264C247.68 149.899 246.265 151.922 246.67 154.349C247.074 156.775 249.253 163.476 249.253 163.476" stroke="#263238" stroke-width="0.3" stroke-linecap="round" stroke-linejoin="round"/>
<path d="M250.377 127.636L252.032 126.367" stroke="#263238" stroke-width="0.3" stroke-linecap="round" stroke-linejoin="round"/>
<path d="M250.454 126.175L249.762 124.944" stroke="#263238" stroke-width="0.3" stroke-linecap="round" stroke-linejoin="round"/>
<path d="M247.569 136.021C247.569 136.021 248.947 134.987 250.376 133.944" stroke="#263238" stroke-width="0.3" stroke-linecap="round" stroke-linejoin="round"/>
<path d="M248.263 133.863C248.263 133.863 247.109 131.602 245.802 130.102" stroke="#263238" stroke-width="0.3" stroke-linecap="round" stroke-linejoin="round"/>
<path d="M248.262 145.366C249.052 143.91 250.05 142.575 251.224 141.406" stroke="#263238" stroke-width="0.3" stroke-linecap="round" stroke-linejoin="round"/>
<path d="M247.997 146.904C247.577 145.916 247.075 144.963 246.497 144.058C245.69 142.866 245.574 142.713 245.574 142.713" stroke="#263238" stroke-width="0.3" stroke-linecap="round" stroke-linejoin="round"/>
<path d="M246.669 154.356C247.019 153.485 247.436 152.642 247.916 151.835C248.394 151.082 248.935 150.37 249.531 149.706" stroke="#263238" stroke-width="0.3" stroke-linecap="round" stroke-linejoin="round"/>
<path d="M248.193 160.023C248.193 160.023 248.031 158.711 248.608 157.597C249.185 156.483 249.839 155.014 250.108 154.442" stroke="#263238" stroke-width="0.3" stroke-linecap="round" stroke-linejoin="round"/>
<path d="M291.489 117.041C291.489 117.041 291.489 115.945 289.954 114.411C288.42 112.877 287.433 112 287.433 112C287.433 112 286.665 114.521 288.091 116.056C289.517 117.59 291.489 119.016 291.489 119.016V117.041Z" fill="url(#paint9_linear_558_488)"/>
<path d="M289.262 123.886C289.262 123.886 289.262 122.791 287.728 121.256C286.193 119.722 285.207 118.845 285.207 118.845C285.207 118.845 284.439 121.366 285.864 122.903C287.29 124.439 289.262 125.863 289.262 125.863V123.886Z" fill="url(#paint10_linear_558_488)"/>
<path d="M291.392 118.907C291.392 118.907 291.508 117.817 293.197 116.453C294.886 115.089 295.952 114.323 295.952 114.323C295.952 114.323 296.45 116.906 294.871 118.284C293.292 119.662 291.179 120.867 291.179 120.867L291.392 118.907Z" fill="url(#paint11_linear_558_488)"/>
<path d="M288.702 126.993C288.702 126.993 288.931 125.921 290.753 124.742C292.575 123.562 293.724 122.911 293.724 122.911C293.724 122.911 293.946 125.537 292.231 126.739C290.516 127.941 288.289 128.921 288.289 128.921L288.702 126.993Z" fill="url(#paint12_linear_558_488)"/>
<path d="M289.207 135.806C289.207 135.806 289.207 134.711 290.743 133.177C292.279 131.642 293.263 130.766 293.263 130.766C293.263 130.766 294.031 133.285 292.613 134.818C291.196 136.35 289.214 137.778 289.214 137.778L289.207 135.806Z" fill="url(#paint13_linear_558_488)"/>
<path d="M289.183 137.959C289.183 137.959 289.338 136.874 288.038 135.136C286.737 133.399 285.883 132.391 285.883 132.391C285.883 132.391 284.766 134.778 285.959 136.498C287.152 138.219 288.902 139.912 288.902 139.912L289.183 137.959Z" fill="url(#paint14_linear_558_488)"/>
<path d="M287.669 144.334C287.669 144.334 287.669 143.239 289.203 141.704C290.738 140.17 291.724 139.293 291.724 139.293C291.724 139.293 292.491 141.815 291.067 143.349C289.642 144.883 287.669 146.309 287.669 146.309V144.334Z" fill="url(#paint15_linear_558_488)"/>
<path d="M288.694 150.115C288.694 150.115 288.417 149.054 289.512 147.188C290.608 145.321 291.341 144.215 291.341 144.215C291.341 144.215 292.719 146.454 291.732 148.305C290.745 150.156 289.194 152.028 289.194 152.028L288.694 150.115Z" fill="url(#paint16_linear_558_488)"/>
<path d="M291.629 116.76C291.551 117.901 291.41 119.037 291.208 120.163C290.601 123.297 289.085 125.329 288.479 128.15C287.873 130.971 289.614 134.628 289.147 138.264C288.68 141.899 287.265 143.922 287.67 146.349C288.074 148.775 290.253 155.476 290.253 155.476" stroke="#263238" stroke-width="0.3" stroke-linecap="round" stroke-linejoin="round"/>
<path d="M291.377 119.636L293.032 118.367" stroke="#263238" stroke-width="0.3" stroke-linecap="round" stroke-linejoin="round"/>
<path d="M291.454 118.175L290.762 116.944" stroke="#263238" stroke-width="0.3" stroke-linecap="round" stroke-linejoin="round"/>
<path d="M288.569 128.021C288.569 128.021 289.947 126.987 291.376 125.944" stroke="#263238" stroke-width="0.3" stroke-linecap="round" stroke-linejoin="round"/>
<path d="M289.263 125.863C289.263 125.863 288.109 123.602 286.802 122.102" stroke="#263238" stroke-width="0.3" stroke-linecap="round" stroke-linejoin="round"/>
<path d="M289.262 137.366C290.052 135.91 291.05 134.575 292.224 133.406" stroke="#263238" stroke-width="0.3" stroke-linecap="round" stroke-linejoin="round"/>
<path d="M288.997 138.904C288.577 137.916 288.075 136.963 287.497 136.058C286.69 134.866 286.574 134.713 286.574 134.713" stroke="#263238" stroke-width="0.3" stroke-linecap="round" stroke-linejoin="round"/>
<path d="M287.669 146.356C288.019 145.485 288.436 144.642 288.916 143.835C289.394 143.082 289.935 142.37 290.531 141.706" stroke="#263238" stroke-width="0.3" stroke-linecap="round" stroke-linejoin="round"/>
<path d="M289.193 152.023C289.193 152.023 289.031 150.711 289.608 149.597C290.185 148.483 290.839 147.014 291.108 146.442" stroke="#263238" stroke-width="0.3" stroke-linecap="round" stroke-linejoin="round"/>
<path d="M209.489 116.041C209.489 116.041 209.489 114.945 207.954 113.411C206.42 111.877 205.433 111 205.433 111C205.433 111 204.665 113.521 206.091 115.056C207.517 116.59 209.489 118.016 209.489 118.016V116.041Z" fill="url(#paint17_linear_558_488)"/>
<path d="M207.262 122.886C207.262 122.886 207.262 121.791 205.728 120.256C204.193 118.722 203.207 117.845 203.207 117.845C203.207 117.845 202.439 120.366 203.864 121.903C205.29 123.439 207.262 124.863 207.262 124.863V122.886Z" fill="url(#paint18_linear_558_488)"/>
<path d="M209.392 117.907C209.392 117.907 209.508 116.817 211.197 115.453C212.886 114.089 213.952 113.323 213.952 113.323C213.952 113.323 214.45 115.906 212.871 117.284C211.292 118.662 209.179 119.867 209.179 119.867L209.392 117.907Z" fill="url(#paint19_linear_558_488)"/>
<path d="M206.702 125.993C206.702 125.993 206.931 124.921 208.753 123.742C210.575 122.562 211.724 121.911 211.724 121.911C211.724 121.911 211.946 124.537 210.231 125.739C208.516 126.941 206.289 127.921 206.289 127.921L206.702 125.993Z" fill="url(#paint20_linear_558_488)"/>
<path d="M207.207 134.806C207.207 134.806 207.207 133.711 208.743 132.177C210.279 130.642 211.263 129.766 211.263 129.766C211.263 129.766 212.031 132.285 210.613 133.818C209.196 135.35 207.214 136.778 207.214 136.778L207.207 134.806Z" fill="url(#paint21_linear_558_488)"/>
<path d="M207.183 136.959C207.183 136.959 207.338 135.874 206.038 134.136C204.737 132.399 203.883 131.391 203.883 131.391C203.883 131.391 202.766 133.778 203.959 135.498C205.152 137.219 206.902 138.912 206.902 138.912L207.183 136.959Z" fill="url(#paint22_linear_558_488)"/>
<path d="M205.669 143.334C205.669 143.334 205.669 142.239 207.203 140.704C208.738 139.17 209.724 138.293 209.724 138.293C209.724 138.293 210.491 140.815 209.067 142.349C207.642 143.883 205.669 145.309 205.669 145.309V143.334Z" fill="url(#paint23_linear_558_488)"/>
<path d="M206.694 149.115C206.694 149.115 206.417 148.054 207.512 146.188C208.608 144.321 209.341 143.215 209.341 143.215C209.341 143.215 210.719 145.454 209.732 147.305C208.745 149.156 207.194 151.028 207.194 151.028L206.694 149.115Z" fill="url(#paint24_linear_558_488)"/>
<path d="M209.629 115.76C209.551 116.901 209.41 118.037 209.208 119.163C208.601 122.297 207.085 124.329 206.479 127.15C205.873 129.971 207.614 133.628 207.147 137.264C206.68 140.899 205.265 142.922 205.67 145.349C206.074 147.775 208.253 154.476 208.253 154.476" stroke="#263238" stroke-width="0.3" stroke-linecap="round" stroke-linejoin="round"/>
<path d="M209.377 118.636L211.032 117.367" stroke="#263238" stroke-width="0.3" stroke-linecap="round" stroke-linejoin="round"/>
<path d="M209.454 117.175L208.762 115.944" stroke="#263238" stroke-width="0.3" stroke-linecap="round" stroke-linejoin="round"/>
<path d="M206.569 127.021C206.569 127.021 207.947 125.987 209.376 124.944" stroke="#263238" stroke-width="0.3" stroke-linecap="round" stroke-linejoin="round"/>
<path d="M207.263 124.863C207.263 124.863 206.109 122.602 204.802 121.102" stroke="#263238" stroke-width="0.3" stroke-linecap="round" stroke-linejoin="round"/>
<path d="M207.262 136.366C208.052 134.91 209.05 133.575 210.224 132.406" stroke="#263238" stroke-width="0.3" stroke-linecap="round" stroke-linejoin="round"/>
<path d="M206.997 137.904C206.577 136.916 206.075 135.963 205.497 135.058C204.69 133.866 204.574 133.713 204.574 133.713" stroke="#263238" stroke-width="0.3" stroke-linecap="round" stroke-linejoin="round"/>
<path d="M205.669 145.356C206.019 144.485 206.436 143.642 206.916 142.835C207.394 142.082 207.935 141.37 208.531 140.706" stroke="#263238" stroke-width="0.3" stroke-linecap="round" stroke-linejoin="round"/>
<path d="M207.193 151.023C207.193 151.023 207.031 149.711 207.608 148.597C208.185 147.483 208.839 146.014 209.108 145.442" stroke="#263238" stroke-width="0.3" stroke-linecap="round" stroke-linejoin="round"/>
<path d="M256.951 102.07C256.951 102.07 256.951 101.403 256.017 100.468C255.082 99.5338 254.481 99 254.481 99C254.481 99 254.014 100.535 254.882 101.47C255.75 102.404 256.951 103.272 256.951 103.272V102.07Z" fill="url(#paint25_linear_558_488)"/>
<path d="M255.596 106.238C255.596 106.238 255.596 105.571 254.661 104.637C253.727 103.702 253.126 103.169 253.126 103.169C253.126 103.169 252.658 104.704 253.526 105.639C254.395 106.575 255.596 107.442 255.596 107.442V106.238Z" fill="url(#paint26_linear_558_488)"/>
<path d="M256.893 103.206C256.893 103.206 256.963 102.543 257.992 101.712C259.021 100.881 259.67 100.415 259.67 100.415C259.67 100.415 259.973 101.988 259.011 102.827C258.049 103.666 256.763 104.4 256.763 104.4L256.893 103.206Z" fill="url(#paint27_linear_558_488)"/>
<path d="M255.255 108.13C255.255 108.13 255.394 107.478 256.504 106.76C257.613 106.041 258.313 105.645 258.313 105.645C258.313 105.645 258.448 107.244 257.403 107.976C256.359 108.708 255.003 109.305 255.003 109.305L255.255 108.13Z" fill="url(#paint28_linear_558_488)"/>
<path d="M255.562 113.498C255.562 113.498 255.562 112.831 256.497 111.896C257.432 110.962 258.031 110.428 258.031 110.428C258.031 110.428 258.499 111.962 257.636 112.896C256.773 113.829 255.566 114.698 255.566 114.698L255.562 113.498Z" fill="url(#paint29_linear_558_488)"/>
<path d="M255.548 114.808C255.548 114.808 255.642 114.148 254.85 113.09C254.058 112.031 253.538 111.418 253.538 111.418C253.538 111.418 252.858 112.871 253.584 113.919C254.311 114.967 255.377 115.998 255.377 115.998L255.548 114.808Z" fill="url(#paint30_linear_558_488)"/>
<path d="M254.626 118.691C254.626 118.691 254.626 118.024 255.56 117.089C256.495 116.155 257.096 115.621 257.096 115.621C257.096 115.621 257.562 117.156 256.695 118.091C255.828 119.025 254.626 119.894 254.626 119.894V118.691Z" fill="url(#paint31_linear_558_488)"/>
<path d="M255.25 122.211C255.25 122.211 255.081 121.565 255.748 120.428C256.415 119.292 256.861 118.618 256.861 118.618C256.861 118.618 257.7 119.982 257.099 121.109C256.499 122.236 255.554 123.376 255.554 123.376L255.25 122.211Z" fill="url(#paint32_linear_558_488)"/>
<path d="M257.037 101.899C256.989 102.594 256.904 103.285 256.781 103.971C256.411 105.88 255.488 107.117 255.119 108.835C254.75 110.553 255.81 112.78 255.526 114.994C255.241 117.208 254.379 118.44 254.626 119.918C254.872 121.395 256.199 125.476 256.199 125.476" stroke="#263238" stroke-width="0.3" stroke-linecap="round" stroke-linejoin="round"/>
<path d="M256.884 103.65L257.892 102.877" stroke="#263238" stroke-width="0.3" stroke-linecap="round" stroke-linejoin="round"/>
<path d="M256.93 102.761L256.509 102.011" stroke="#263238" stroke-width="0.3" stroke-linecap="round" stroke-linejoin="round"/>
<path d="M255.174 108.756C255.174 108.756 256.013 108.127 256.883 107.492" stroke="#263238" stroke-width="0.3" stroke-linecap="round" stroke-linejoin="round"/>
<path d="M255.595 107.442C255.595 107.442 254.893 106.065 254.097 105.152" stroke="#263238" stroke-width="0.3" stroke-linecap="round" stroke-linejoin="round"/>
<path d="M255.596 114.448C256.077 113.56 256.685 112.748 257.4 112.036" stroke="#263238" stroke-width="0.3" stroke-linecap="round" stroke-linejoin="round"/>
<path d="M255.435 115.384C255.179 114.782 254.873 114.202 254.521 113.651C254.029 112.925 253.959 112.832 253.959 112.832" stroke="#263238" stroke-width="0.3" stroke-linecap="round" stroke-linejoin="round"/>
<path d="M254.626 119.922C254.839 119.391 255.093 118.878 255.385 118.387C255.677 117.928 256.006 117.495 256.369 117.09" stroke="#263238" stroke-width="0.3" stroke-linecap="round" stroke-linejoin="round"/>
<path d="M255.554 123.373C255.554 123.373 255.455 122.574 255.806 121.896C256.158 121.217 256.556 120.323 256.72 119.974" stroke="#263238" stroke-width="0.3" stroke-linecap="round" stroke-linejoin="round"/>
<path d="M333.951 103.07C333.951 103.07 333.951 102.403 333.017 101.468C332.082 100.534 331.481 100 331.481 100C331.481 100 331.014 101.535 331.882 102.47C332.75 103.404 333.951 104.272 333.951 104.272V103.07Z" fill="url(#paint33_linear_558_488)"/>
<path d="M332.596 107.238C332.596 107.238 332.596 106.571 331.661 105.637C330.727 104.702 330.126 104.169 330.126 104.169C330.126 104.169 329.658 105.704 330.526 106.639C331.395 107.575 332.596 108.442 332.596 108.442V107.238Z" fill="url(#paint34_linear_558_488)"/>
<path d="M333.893 104.206C333.893 104.206 333.963 103.543 334.992 102.712C336.021 101.881 336.67 101.415 336.67 101.415C336.67 101.415 336.973 102.988 336.011 103.827C335.049 104.666 333.763 105.4 333.763 105.4L333.893 104.206Z" fill="url(#paint35_linear_558_488)"/>
<path d="M332.255 109.13C332.255 109.13 332.394 108.478 333.504 107.76C334.613 107.041 335.313 106.645 335.313 106.645C335.313 106.645 335.448 108.244 334.403 108.976C333.359 109.708 332.003 110.305 332.003 110.305L332.255 109.13Z" fill="url(#paint36_linear_558_488)"/>
<path d="M332.562 114.498C332.562 114.498 332.562 113.831 333.497 112.896C334.432 111.962 335.031 111.428 335.031 111.428C335.031 111.428 335.499 112.962 334.636 113.896C333.773 114.829 332.566 115.698 332.566 115.698L332.562 114.498Z" fill="url(#paint37_linear_558_488)"/>
<path d="M332.548 115.808C332.548 115.808 332.642 115.148 331.85 114.09C331.058 113.031 330.538 112.418 330.538 112.418C330.538 112.418 329.858 113.871 330.584 114.919C331.311 115.967 332.377 116.998 332.377 116.998L332.548 115.808Z" fill="url(#paint38_linear_558_488)"/>
<path d="M331.626 119.691C331.626 119.691 331.626 119.024 332.56 118.089C333.495 117.155 334.096 116.621 334.096 116.621C334.096 116.621 334.562 118.156 333.695 119.091C332.828 120.025 331.626 120.894 331.626 120.894V119.691Z" fill="url(#paint39_linear_558_488)"/>
<path d="M332.25 123.211C332.25 123.211 332.081 122.565 332.748 121.428C333.415 120.292 333.861 119.618 333.861 119.618C333.861 119.618 334.7 120.982 334.099 122.109C333.499 123.236 332.554 124.376 332.554 124.376L332.25 123.211Z" fill="url(#paint40_linear_558_488)"/>
<path d="M334.037 102.899C333.989 103.594 333.904 104.285 333.781 104.971C333.411 106.88 332.488 108.117 332.119 109.835C331.75 111.553 332.81 113.78 332.526 115.994C332.241 118.208 331.379 119.44 331.626 120.918C331.872 122.395 333.199 126.476 333.199 126.476" stroke="#263238" stroke-width="0.3" stroke-linecap="round" stroke-linejoin="round"/>
<path d="M333.884 104.65L334.892 103.877" stroke="#263238" stroke-width="0.3" stroke-linecap="round" stroke-linejoin="round"/>
<path d="M333.93 103.761L333.509 103.011" stroke="#263238" stroke-width="0.3" stroke-linecap="round" stroke-linejoin="round"/>
<path d="M332.174 109.756C332.174 109.756 333.013 109.127 333.883 108.492" stroke="#263238" stroke-width="0.3" stroke-linecap="round" stroke-linejoin="round"/>
<path d="M332.595 108.442C332.595 108.442 331.893 107.065 331.097 106.152" stroke="#263238" stroke-width="0.3" stroke-linecap="round" stroke-linejoin="round"/>
<path d="M332.596 115.448C333.077 114.56 333.685 113.748 334.4 113.036" stroke="#263238" stroke-width="0.3" stroke-linecap="round" stroke-linejoin="round"/>
<path d="M332.435 116.384C332.179 115.782 331.873 115.202 331.521 114.651C331.029 113.925 330.959 113.832 330.959 113.832" stroke="#263238" stroke-width="0.3" stroke-linecap="round" stroke-linejoin="round"/>
<path d="M331.626 120.922C331.839 120.391 332.093 119.878 332.385 119.387C332.677 118.928 333.006 118.495 333.369 118.09" stroke="#263238" stroke-width="0.3" stroke-linecap="round" stroke-linejoin="round"/>
<path d="M332.554 124.373C332.554 124.373 332.455 123.574 332.806 122.896C333.158 122.217 333.556 121.323 333.72 120.974" stroke="#263238" stroke-width="0.3" stroke-linecap="round" stroke-linejoin="round"/>
<path d="M232.489 127.041C232.489 127.041 232.489 125.945 230.954 124.411C229.42 122.877 228.433 122 228.433 122C228.433 122 227.665 124.521 229.091 126.056C230.517 127.59 232.489 129.016 232.489 129.016V127.041Z" fill="#34A853"/>
<path d="M230.262 133.886C230.262 133.886 230.262 132.791 228.728 131.256C227.193 129.722 226.207 128.845 226.207 128.845C226.207 128.845 225.439 131.366 226.864 132.903C228.29 134.439 230.262 135.863 230.262 135.863V133.886Z" fill="#34A853"/>
<path d="M232.392 128.907C232.392 128.907 232.508 127.817 234.197 126.453C235.886 125.089 236.952 124.323 236.952 124.323C236.952 124.323 237.45 126.906 235.871 128.284C234.292 129.662 232.179 130.867 232.179 130.867L232.392 128.907Z" fill="#34A853"/>
<path d="M229.702 136.993C229.702 136.993 229.931 135.921 231.753 134.742C233.575 133.562 234.724 132.911 234.724 132.911C234.724 132.911 234.946 135.537 233.231 136.739C231.516 137.941 229.289 138.921 229.289 138.921L229.702 136.993Z" fill="#34A853"/>
<path d="M230.207 145.806C230.207 145.806 230.207 144.711 231.743 143.177C233.279 141.642 234.263 140.766 234.263 140.766C234.263 140.766 235.031 143.285 233.613 144.818C232.196 146.35 230.214 147.778 230.214 147.778L230.207 145.806Z" fill="#34A853"/>
<path d="M230.183 147.959C230.183 147.959 230.338 146.874 229.038 145.136C227.737 143.399 226.883 142.391 226.883 142.391C226.883 142.391 225.766 144.778 226.959 146.498C228.152 148.219 229.902 149.912 229.902 149.912L230.183 147.959Z" fill="#34A853"/>
<path d="M228.669 154.334C228.669 154.334 228.669 153.239 230.203 151.704C231.738 150.17 232.724 149.293 232.724 149.293C232.724 149.293 233.491 151.815 232.067 153.349C230.642 154.883 228.669 156.309 228.669 156.309V154.334Z" fill="#34A853"/>
<path d="M229.694 160.115C229.694 160.115 229.417 159.054 230.512 157.188C231.608 155.321 232.341 154.215 232.341 154.215C232.341 154.215 233.719 156.454 232.732 158.305C231.745 160.156 230.194 162.028 230.194 162.028L229.694 160.115Z" fill="#34A853"/>
<path d="M232.629 126.76C232.551 127.901 232.41 129.037 232.208 130.163C231.601 133.297 230.085 135.329 229.479 138.15C228.873 140.971 230.614 144.628 230.147 148.264C229.68 151.899 228.265 153.922 228.67 156.349C229.074 158.775 231.253 165.476 231.253 165.476" stroke="#263238" stroke-linecap="round" stroke-linejoin="round"/>
<path d="M232.377 129.636L234.032 128.367" stroke="#263238" stroke-linecap="round" stroke-linejoin="round"/>
<path d="M232.454 128.175L231.762 126.944" stroke="#263238" stroke-linecap="round" stroke-linejoin="round"/>
<path d="M229.569 138.021C229.569 138.021 230.947 136.987 232.376 135.944" stroke="#263238" stroke-linecap="round" stroke-linejoin="round"/>
<path d="M230.263 135.863C230.263 135.863 229.109 133.602 227.802 132.102" stroke="#263238" stroke-linecap="round" stroke-linejoin="round"/>
<path d="M230.262 147.366C231.052 145.91 232.05 144.575 233.224 143.406" stroke="#263238" stroke-linecap="round" stroke-linejoin="round"/>
<path d="M229.997 148.904C229.577 147.916 229.075 146.963 228.497 146.058C227.69 144.866 227.574 144.713 227.574 144.713" stroke="#263238" stroke-linecap="round" stroke-linejoin="round"/>
<path d="M228.669 156.356C229.019 155.485 229.436 154.642 229.916 153.835C230.394 153.082 230.935 152.37 231.531 151.706" stroke="#263238" stroke-linecap="round" stroke-linejoin="round"/>
<path d="M230.193 162.023C230.193 162.023 230.031 160.711 230.608 159.597C231.185 158.483 231.839 157.014 232.108 156.442" stroke="#263238" stroke-linecap="round" stroke-linejoin="round"/>
<path d="M277.489 103.041C277.489 103.041 277.489 101.945 275.954 100.411C274.42 98.8765 273.433 98 273.433 98C273.433 98 272.665 100.521 274.091 102.056C275.517 103.59 277.489 105.016 277.489 105.016V103.041Z" fill="#34A853"/>
<path d="M275.262 109.886C275.262 109.886 275.262 108.791 273.728 107.256C272.193 105.722 271.207 104.845 271.207 104.845C271.207 104.845 270.439 107.366 271.864 108.903C273.29 110.439 275.262 111.863 275.262 111.863V109.886Z" fill="#34A853"/>
<path d="M277.392 104.907C277.392 104.907 277.508 103.817 279.197 102.453C280.886 101.089 281.952 100.323 281.952 100.323C281.952 100.323 282.45 102.906 280.871 104.284C279.292 105.662 277.179 106.867 277.179 106.867L277.392 104.907Z" fill="#34A853"/>
<path d="M274.702 112.993C274.702 112.993 274.931 111.921 276.753 110.742C278.575 109.562 279.724 108.911 279.724 108.911C279.724 108.911 279.946 111.537 278.231 112.739C276.516 113.941 274.289 114.921 274.289 114.921L274.702 112.993Z" fill="#34A853"/>
<path d="M275.207 121.806C275.207 121.806 275.207 120.711 276.743 119.177C278.279 117.642 279.263 116.766 279.263 116.766C279.263 116.766 280.031 119.285 278.613 120.818C277.196 122.35 275.214 123.778 275.214 123.778L275.207 121.806Z" fill="#34A853"/>
<path d="M275.183 123.959C275.183 123.959 275.338 122.874 274.038 121.136C272.737 119.399 271.883 118.391 271.883 118.391C271.883 118.391 270.766 120.778 271.959 122.498C273.152 124.219 274.902 125.912 274.902 125.912L275.183 123.959Z" fill="#34A853"/>
<path d="M273.669 130.334C273.669 130.334 273.669 129.239 275.203 127.704C276.738 126.17 277.724 125.293 277.724 125.293C277.724 125.293 278.491 127.815 277.067 129.349C275.642 130.883 273.669 132.309 273.669 132.309V130.334Z" fill="#34A853"/>
<path d="M274.694 136.115C274.694 136.115 274.417 135.054 275.512 133.188C276.608 131.321 277.341 130.215 277.341 130.215C277.341 130.215 278.719 132.454 277.732 134.305C276.745 136.156 275.194 138.028 275.194 138.028L274.694 136.115Z" fill="#34A853"/>
<path d="M277.629 102.76C277.551 103.901 277.41 105.037 277.208 106.163C276.601 109.297 275.085 111.329 274.479 114.15C273.873 116.971 275.614 120.628 275.147 124.264C274.68 127.899 273.265 129.922 273.67 132.349C274.074 134.775 276.253 141.476 276.253 141.476" stroke="#263238" stroke-linecap="round" stroke-linejoin="round"/>
<path d="M277.377 105.636L279.032 104.367" stroke="#263238" stroke-linecap="round" stroke-linejoin="round"/>
<path d="M277.454 104.175L276.762 102.944" stroke="#263238" stroke-linecap="round" stroke-linejoin="round"/>
<path d="M274.569 114.021C274.569 114.021 275.947 112.987 277.376 111.944" stroke="#263238" stroke-linecap="round" stroke-linejoin="round"/>
<path d="M275.263 111.863C275.263 111.863 274.109 109.602 272.802 108.102" stroke="#263238" stroke-linecap="round" stroke-linejoin="round"/>
<path d="M275.262 123.366C276.052 121.91 277.05 120.575 278.224 119.406" stroke="#263238" stroke-linecap="round" stroke-linejoin="round"/>
<path d="M274.997 124.904C274.577 123.916 274.075 122.963 273.497 122.058C272.69 120.866 272.574 120.713 272.574 120.713" stroke="#263238" stroke-linecap="round" stroke-linejoin="round"/>
<path d="M273.669 132.356C274.019 131.485 274.436 130.642 274.916 129.835C275.394 129.082 275.935 128.37 276.531 127.706" stroke="#263238" stroke-linecap="round" stroke-linejoin="round"/>
<path d="M275.193 138.023C275.193 138.023 275.031 136.711 275.608 135.597C276.185 134.483 276.839 133.014 277.108 132.442" stroke="#263238" stroke-linecap="round" stroke-linejoin="round"/>
<path d="M322.489 79.0406C322.489 79.0406 322.489 77.9453 320.954 76.4109C319.42 74.8765 318.433 74 318.433 74C318.433 74 317.665 76.5211 319.091 78.0555C320.517 79.5899 322.489 81.0158 322.489 81.0158V79.0406Z" fill="#34A853"/>
<path d="M320.262 85.8859C320.262 85.8859 320.262 84.7907 318.728 83.2563C317.193 81.7219 316.207 80.8453 316.207 80.8453C316.207 80.8453 315.439 83.3665 316.864 84.9026C318.29 86.4387 320.262 87.8629 320.262 87.8629V85.8859Z" fill="#34A853"/>
<path d="M322.392 80.9073C322.392 80.9073 322.508 79.8172 324.197 78.4534C325.886 77.0895 326.952 76.3231 326.952 76.3231C326.952 76.3231 327.45 78.9063 325.871 80.2839C324.292 81.6616 322.179 82.8671 322.179 82.8671L322.392 80.9073Z" fill="#34A853"/>
<path d="M319.702 88.9926C319.702 88.9926 319.931 87.9214 321.753 86.7418C323.575 85.5621 324.724 84.9112 324.724 84.9112C324.724 84.9112 324.946 87.5374 323.231 88.7394C321.516 89.9414 319.289 90.9213 319.289 90.9213L319.702 88.9926Z" fill="#34A853"/>
<path d="M320.207 97.8063C320.207 97.8063 320.207 96.711 321.743 95.1766C323.279 93.6422 324.263 92.7657 324.263 92.7657C324.263 92.7657 325.031 95.2851 323.613 96.8178C322.196 98.3504 320.214 99.7781 320.214 99.7781L320.207 97.8063Z" fill="#34A853"/>
<path d="M320.183 99.9588C320.183 99.9588 320.338 98.8739 319.038 97.1363C317.737 95.3987 316.883 94.3913 316.883 94.3913C316.883 94.3913 315.766 96.7781 316.959 98.4985C318.152 100.219 319.902 101.912 319.902 101.912L320.183 99.9588Z" fill="#34A853"/>
<path d="M318.669 106.334C318.669 106.334 318.669 105.239 320.203 103.704C321.738 102.17 322.724 101.293 322.724 101.293C322.724 101.293 323.491 103.815 322.067 105.349C320.642 106.883 318.669 108.309 318.669 108.309V106.334Z" fill="#34A853"/>
<path d="M319.694 112.115C319.694 112.115 319.417 111.054 320.512 109.188C321.608 107.321 322.341 106.215 322.341 106.215C322.341 106.215 323.719 108.454 322.732 110.305C321.745 112.156 320.194 114.028 320.194 114.028L319.694 112.115Z" fill="#34A853"/>
<path d="M322.629 78.7599C322.551 79.901 322.41 81.0369 322.208 82.1627C321.601 85.297 320.085 87.329 319.479 90.1498C318.873 92.9706 320.614 96.6283 320.147 100.264C319.68 103.899 318.265 105.922 318.67 108.349C319.074 110.775 321.253 117.476 321.253 117.476" stroke="#263238" stroke-linecap="round" stroke-linejoin="round"/>
<path d="M322.377 81.6358L324.032 80.3666" stroke="#263238" stroke-linecap="round" stroke-linejoin="round"/>
<path d="M322.454 80.1754L321.762 78.9442" stroke="#263238" stroke-linecap="round" stroke-linejoin="round"/>
<path d="M319.569 90.0206C319.569 90.0206 320.947 88.9874 322.376 87.9438" stroke="#263238" stroke-linecap="round" stroke-linejoin="round"/>
<path d="M320.263 87.8629C320.263 87.8629 319.109 85.6018 317.802 84.1018" stroke="#263238" stroke-linecap="round" stroke-linejoin="round"/>
<path d="M320.262 99.3665C321.052 97.9097 322.05 96.5755 323.224 95.4056" stroke="#263238" stroke-linecap="round" stroke-linejoin="round"/>
<path d="M319.997 100.904C319.577 99.9156 319.075 98.9634 318.497 98.0577C317.69 96.866 317.574 96.7127 317.574 96.7127" stroke="#263238" stroke-linecap="round" stroke-linejoin="round"/>
<path d="M318.669 108.356C319.019 107.485 319.436 106.642 319.916 105.835C320.394 105.082 320.935 104.37 321.531 103.706" stroke="#263238" stroke-linecap="round" stroke-linejoin="round"/>
<path d="M320.193 114.023C320.193 114.023 320.031 112.711 320.608 111.597C321.185 110.483 321.839 109.014 322.108 108.442" stroke="#263238" stroke-linecap="round" stroke-linejoin="round"/>
<path d="M299.489 88.0406C299.489 88.0406 299.489 86.9453 297.954 85.4109C296.42 83.8765 295.433 83 295.433 83C295.433 83 294.665 85.5211 296.091 87.0555C297.517 88.5899 299.489 90.0158 299.489 90.0158V88.0406Z" fill="#34A853"/>
<path d="M297.262 94.8859C297.262 94.8859 297.262 93.7907 295.728 92.2563C294.193 90.7219 293.207 89.8453 293.207 89.8453C293.207 89.8453 292.439 92.3665 293.864 93.9026C295.29 95.4387 297.262 96.8629 297.262 96.8629V94.8859Z" fill="#34A853"/>
<path d="M299.392 89.9073C299.392 89.9073 299.508 88.8172 301.197 87.4534C302.886 86.0895 303.952 85.3231 303.952 85.3231C303.952 85.3231 304.45 87.9063 302.871 89.2839C301.292 90.6616 299.179 91.8671 299.179 91.8671L299.392 89.9073Z" fill="#34A853"/>
<path d="M296.702 97.9926C296.702 97.9926 296.931 96.9214 298.753 95.7418C300.575 94.5621 301.724 93.9112 301.724 93.9112C301.724 93.9112 301.946 96.5374 300.231 97.7394C298.516 98.9414 296.289 99.9213 296.289 99.9213L296.702 97.9926Z" fill="#34A853"/>
<path d="M297.207 106.806C297.207 106.806 297.207 105.711 298.743 104.177C300.279 102.642 301.263 101.766 301.263 101.766C301.263 101.766 302.031 104.285 300.613 105.818C299.196 107.35 297.214 108.778 297.214 108.778L297.207 106.806Z" fill="#34A853"/>
<path d="M297.183 108.959C297.183 108.959 297.338 107.874 296.038 106.136C294.737 104.399 293.883 103.391 293.883 103.391C293.883 103.391 292.766 105.778 293.959 107.498C295.152 109.219 296.902 110.912 296.902 110.912L297.183 108.959Z" fill="#34A853"/>
<path d="M295.669 115.334C295.669 115.334 295.669 114.239 297.203 112.704C298.738 111.17 299.724 110.293 299.724 110.293C299.724 110.293 300.491 112.815 299.067 114.349C297.642 115.883 295.669 117.309 295.669 117.309V115.334Z" fill="#34A853"/>
<path d="M296.694 121.115C296.694 121.115 296.417 120.054 297.512 118.188C298.608 116.321 299.341 115.215 299.341 115.215C299.341 115.215 300.719 117.454 299.732 119.305C298.745 121.156 297.194 123.028 297.194 123.028L296.694 121.115Z" fill="#34A853"/>
<path d="M299.629 87.7599C299.551 88.901 299.41 90.0369 299.208 91.1627C298.601 94.297 297.085 96.329 296.479 99.1498C295.873 101.971 297.614 105.628 297.147 109.264C296.68 112.899 295.265 114.922 295.67 117.349C296.074 119.775 298.253 126.476 298.253 126.476" stroke="#263238" stroke-linecap="round" stroke-linejoin="round"/>
<path d="M299.377 90.6358L301.032 89.3666" stroke="#263238" stroke-linecap="round" stroke-linejoin="round"/>
<path d="M299.454 89.1754L298.762 87.9442" stroke="#263238" stroke-linecap="round" stroke-linejoin="round"/>
<path d="M296.569 99.0206C296.569 99.0206 297.947 97.9874 299.376 96.9438" stroke="#263238" stroke-linecap="round" stroke-linejoin="round"/>
<path d="M297.263 96.8629C297.263 96.8629 296.109 94.6018 294.802 93.1018" stroke="#263238" stroke-linecap="round" stroke-linejoin="round"/>
<path d="M297.262 108.366C298.052 106.91 299.05 105.575 300.224 104.406" stroke="#263238" stroke-linecap="round" stroke-linejoin="round"/>
<path d="M296.997 109.904C296.577 108.916 296.075 107.963 295.497 107.058C294.69 105.866 294.574 105.713 294.574 105.713" stroke="#263238" stroke-linecap="round" stroke-linejoin="round"/>
<path d="M295.669 117.356C296.019 116.485 296.436 115.642 296.916 114.835C297.394 114.082 297.935 113.37 298.531 112.706" stroke="#263238" stroke-linecap="round" stroke-linejoin="round"/>
<path d="M297.193 123.023C297.193 123.023 297.031 121.711 297.608 120.597C298.185 119.483 298.839 118.014 299.108 117.442" stroke="#263238" stroke-linecap="round" stroke-linejoin="round"/>
<path d="M311.489 93.0406C311.489 93.0406 311.489 91.9453 309.954 90.4109C308.42 88.8765 307.433 88 307.433 88C307.433 88 306.665 90.5211 308.091 92.0555C309.517 93.5899 311.489 95.0158 311.489 95.0158V93.0406Z" fill="#34A853"/>
<path d="M309.262 99.8859C309.262 99.8859 309.262 98.7907 307.728 97.2563C306.193 95.7219 305.207 94.8453 305.207 94.8453C305.207 94.8453 304.439 97.3665 305.864 98.9026C307.29 100.439 309.262 101.863 309.262 101.863V99.8859Z" fill="#34A853"/>
<path d="M311.392 94.9073C311.392 94.9073 311.508 93.8172 313.197 92.4534C314.886 91.0895 315.952 90.3231 315.952 90.3231C315.952 90.3231 316.45 92.9063 314.871 94.2839C313.292 95.6616 311.179 96.8671 311.179 96.8671L311.392 94.9073Z" fill="#34A853"/>
<path d="M308.702 102.993C308.702 102.993 308.931 101.921 310.753 100.742C312.575 99.5621 313.724 98.9112 313.724 98.9112C313.724 98.9112 313.946 101.537 312.231 102.739C310.516 103.941 308.289 104.921 308.289 104.921L308.702 102.993Z" fill="#34A853"/>
<path d="M309.207 111.806C309.207 111.806 309.207 110.711 310.743 109.177C312.279 107.642 313.263 106.766 313.263 106.766C313.263 106.766 314.031 109.285 312.613 110.818C311.196 112.35 309.214 113.778 309.214 113.778L309.207 111.806Z" fill="#34A853"/>
<path d="M309.183 113.959C309.183 113.959 309.338 112.874 308.038 111.136C306.737 109.399 305.883 108.391 305.883 108.391C305.883 108.391 304.766 110.778 305.959 112.498C307.152 114.219 308.902 115.912 308.902 115.912L309.183 113.959Z" fill="#34A853"/>
<path d="M307.669 120.334C307.669 120.334 307.669 119.239 309.203 117.704C310.738 116.17 311.724 115.293 311.724 115.293C311.724 115.293 312.491 117.815 311.067 119.349C309.642 120.883 307.669 122.309 307.669 122.309V120.334Z" fill="#34A853"/>
<path d="M308.694 126.115C308.694 126.115 308.417 125.054 309.512 123.188C310.608 121.321 311.341 120.215 311.341 120.215C311.341 120.215 312.719 122.454 311.732 124.305C310.745 126.156 309.194 128.028 309.194 128.028L308.694 126.115Z" fill="#34A853"/>
<path d="M311.629 92.7599C311.551 93.901 311.41 95.0369 311.208 96.1627C310.601 99.297 309.085 101.329 308.479 104.15C307.873 106.971 309.614 110.628 309.147 114.264C308.68 117.899 307.265 119.922 307.67 122.349C308.074 124.775 310.253 131.476 310.253 131.476" stroke="#263238" stroke-linecap="round" stroke-linejoin="round"/>
<path d="M311.377 95.6358L313.032 94.3666" stroke="#263238" stroke-linecap="round" stroke-linejoin="round"/>
<path d="M311.454 94.1754L310.762 92.9442" stroke="#263238" stroke-linecap="round" stroke-linejoin="round"/>
<path d="M308.569 104.021C308.569 104.021 309.947 102.987 311.376 101.944" stroke="#263238" stroke-linecap="round" stroke-linejoin="round"/>
<path d="M309.263 101.863C309.263 101.863 308.109 99.6018 306.802 98.1018" stroke="#263238" stroke-linecap="round" stroke-linejoin="round"/>
<path d="M309.262 113.366C310.052 111.91 311.05 110.575 312.224 109.406" stroke="#263238" stroke-linecap="round" stroke-linejoin="round"/>
<path d="M308.997 114.904C308.577 113.916 308.075 112.963 307.497 112.058C306.69 110.866 306.574 110.713 306.574 110.713" stroke="#263238" stroke-linecap="round" stroke-linejoin="round"/>
<path d="M307.669 122.356C308.019 121.485 308.436 120.642 308.916 119.835C309.394 119.082 309.935 118.37 310.531 117.706" stroke="#263238" stroke-linecap="round" stroke-linejoin="round"/>
<path d="M309.193 128.023C309.193 128.023 309.031 126.711 309.608 125.597C310.185 124.483 310.839 123.014 311.108 122.442" stroke="#263238" stroke-linecap="round" stroke-linejoin="round"/>
<path d="M220.891 111.577C220.891 111.577 220.891 110.582 219.498 109.189C218.105 107.796 217.209 107 217.209 107C217.209 107 216.512 109.289 217.806 110.682C219.101 112.076 220.891 113.37 220.891 113.37V111.577Z" fill="#34A853"/>
<path d="M218.87 117.792C218.87 117.792 218.87 116.798 217.477 115.405C216.084 114.011 215.188 113.216 215.188 113.216C215.188 113.216 214.49 115.505 215.785 116.899C217.08 118.294 218.87 119.587 218.87 119.587V117.792Z" fill="#34A853"/>
<path d="M220.804 113.272C220.804 113.272 220.909 112.282 222.443 111.044C223.977 109.805 224.945 109.109 224.945 109.109C224.945 109.109 225.397 111.455 223.963 112.706C222.529 113.957 220.61 115.051 220.61 115.051L220.804 113.272Z" fill="#34A853"/>
<path d="M218.362 120.613C218.362 120.613 218.57 119.641 220.224 118.569C221.878 117.498 222.921 116.907 222.921 116.907C222.921 116.907 223.123 119.292 221.566 120.383C220.008 121.475 217.986 122.364 217.986 122.364L218.362 120.613Z" fill="#34A853"/>
<path d="M218.82 128.616C218.82 128.616 218.82 127.621 220.215 126.228C221.61 124.835 222.503 124.039 222.503 124.039C222.503 124.039 223.2 126.327 221.913 127.718C220.626 129.11 218.827 130.406 218.827 130.406L218.82 128.616Z" fill="#34A853"/>
<path d="M218.798 130.57C218.798 130.57 218.939 129.585 217.759 128.008C216.578 126.43 215.802 125.515 215.802 125.515C215.802 125.515 214.788 127.682 215.871 129.245C216.955 130.807 218.543 132.344 218.543 132.344L218.798 130.57Z" fill="#34A853"/>
<path d="M217.424 136.359C217.424 136.359 217.424 135.365 218.817 133.971C220.21 132.578 221.106 131.782 221.106 131.782C221.106 131.782 221.802 134.072 220.509 135.465C219.216 136.858 217.424 138.153 217.424 138.153V136.359Z" fill="#34A853"/>
<path d="M218.354 141.608C218.354 141.608 218.102 140.645 219.096 138.95C220.091 137.255 220.757 136.251 220.757 136.251C220.757 136.251 222.008 138.284 221.112 139.965C220.216 141.646 218.807 143.346 218.807 143.346L218.354 141.608Z" fill="#34A853"/>
<path d="M221.018 111.322C220.948 112.358 220.82 113.39 220.637 114.412C220.085 117.258 218.709 119.103 218.159 121.664C217.608 124.225 219.189 127.546 218.765 130.847C218.342 134.148 217.056 135.985 217.424 138.189C217.791 140.392 219.769 146.476 219.769 146.476" stroke="#263238" stroke-linecap="round" stroke-linejoin="round"/>
<path d="M220.79 113.933L222.293 112.781" stroke="#263238" stroke-linecap="round" stroke-linejoin="round"/>
<path d="M220.86 112.607L220.231 111.489" stroke="#263238" stroke-linecap="round" stroke-linejoin="round"/>
<path d="M218.241 121.547C218.241 121.547 219.492 120.608 220.79 119.661" stroke="#263238" stroke-linecap="round" stroke-linejoin="round"/>
<path d="M218.87 119.587C218.87 119.587 217.823 117.534 216.636 116.172" stroke="#263238" stroke-linecap="round" stroke-linejoin="round"/>
<path d="M218.87 130.033C219.588 128.71 220.494 127.498 221.56 126.436" stroke="#263238" stroke-linecap="round" stroke-linejoin="round"/>
<path d="M218.63 131.429C218.248 130.531 217.793 129.667 217.268 128.844C216.534 127.762 216.43 127.623 216.43 127.623" stroke="#263238" stroke-linecap="round" stroke-linejoin="round"/>
<path d="M217.424 138.195C217.742 137.404 218.12 136.639 218.556 135.906C218.991 135.222 219.481 134.576 220.023 133.973" stroke="#263238" stroke-linecap="round" stroke-linejoin="round"/>
<path d="M218.807 143.341C218.807 143.341 218.66 142.149 219.184 141.138C219.708 140.126 220.302 138.792 220.546 138.273" stroke="#263238" stroke-linecap="round" stroke-linejoin="round"/>
<path d="M265.339 113.925C265.339 113.925 265.339 112.855 263.84 111.355C262.341 109.856 261.377 109 261.377 109C261.377 109 260.626 111.463 262.019 112.962C263.412 114.461 265.339 115.854 265.339 115.854V113.925Z" fill="#34A853"/>
<path d="M263.164 120.612C263.164 120.612 263.164 119.542 261.665 118.043C260.166 116.544 259.202 115.688 259.202 115.688C259.202 115.688 258.451 118.151 259.845 119.652C261.238 121.153 263.164 122.544 263.164 122.544V120.612Z" fill="#34A853"/>
<path d="M265.246 115.748C265.246 115.748 265.358 114.683 267.009 113.351C268.659 112.018 269.701 111.27 269.701 111.27C269.701 111.27 270.187 113.793 268.644 115.139C267.102 116.485 265.037 117.663 265.037 117.663L265.246 115.748Z" fill="#34A853"/>
<path d="M262.618 123.648C262.618 123.648 262.841 122.601 264.622 121.449C266.402 120.296 267.524 119.66 267.524 119.66C267.524 119.66 267.741 122.226 266.065 123.4C264.389 124.575 262.214 125.532 262.214 125.532L262.618 123.648Z" fill="#34A853"/>
<path d="M263.11 132.259C263.11 132.259 263.11 131.189 264.611 129.69C266.112 128.19 267.073 127.334 267.073 127.334C267.073 127.334 267.823 129.796 266.438 131.293C265.054 132.79 263.117 134.185 263.117 134.185L263.11 132.259Z" fill="#34A853"/>
<path d="M263.087 134.362C263.087 134.362 263.239 133.302 261.968 131.604C260.698 129.907 259.864 128.922 259.864 128.922C259.864 128.922 258.772 131.254 259.938 132.935C261.103 134.616 262.813 136.27 262.813 136.27L263.087 134.362Z" fill="#34A853"/>
<path d="M261.608 140.59C261.608 140.59 261.608 139.52 263.107 138.021C264.607 136.522 265.571 135.666 265.571 135.666C265.571 135.666 266.319 138.129 264.928 139.628C263.537 141.127 261.608 142.52 261.608 142.52V140.59Z" fill="#34A853"/>
<path d="M262.609 146.238C262.609 146.238 262.338 145.202 263.408 143.378C264.478 141.554 265.195 140.474 265.195 140.474C265.195 140.474 266.541 142.661 265.577 144.47C264.613 146.279 263.097 148.108 263.097 148.108L262.609 146.238Z" fill="#34A853"/>
<path d="M265.476 113.65C265.4 114.765 265.263 115.875 265.066 116.975C264.472 120.037 262.991 122.022 262.399 124.778C261.807 127.534 263.508 131.108 263.052 134.66C262.596 138.211 261.213 140.188 261.608 142.559C262.004 144.929 264.132 151.476 264.132 151.476" stroke="#263238" stroke-linecap="round" stroke-linejoin="round"/>
<path d="M265.23 116.46L266.847 115.22" stroke="#263238" stroke-linecap="round" stroke-linejoin="round"/>
<path d="M265.306 115.033L264.63 113.83" stroke="#263238" stroke-linecap="round" stroke-linejoin="round"/>
<path d="M262.487 124.652C262.487 124.652 263.833 123.643 265.23 122.623" stroke="#263238" stroke-linecap="round" stroke-linejoin="round"/>
<path d="M263.164 122.544C263.164 122.544 262.037 120.335 260.76 118.869" stroke="#263238" stroke-linecap="round" stroke-linejoin="round"/>
<path d="M263.164 133.783C263.936 132.36 264.911 131.056 266.058 129.913" stroke="#263238" stroke-linecap="round" stroke-linejoin="round"/>
<path d="M262.905 135.285C262.495 134.319 262.004 133.389 261.44 132.504C260.651 131.34 260.538 131.19 260.538 131.19" stroke="#263238" stroke-linecap="round" stroke-linejoin="round"/>
<path d="M261.608 142.566C261.951 141.714 262.358 140.891 262.827 140.102C263.294 139.367 263.822 138.671 264.405 138.023" stroke="#263238" stroke-linecap="round" stroke-linejoin="round"/>
<path d="M263.097 148.103C263.097 148.103 262.938 146.821 263.502 145.732C264.066 144.643 264.705 143.208 264.968 142.65" stroke="#263238" stroke-linecap="round" stroke-linejoin="round"/>
<ellipse cx="172.5" cy="124.5" rx="23.5" ry="3.5" fill="#5DCCFC"/>
<path d="M356.468 78.6987C356.468 84.5176 351.75 89.2347 345.932 89.2347C340.113 89.2347 335.396 84.5176 335.396 78.6987C335.396 73.8397 338.481 70.5203 343.057 65.9072C344.637 64.315 347.232 64.3091 348.815 65.8982C353.358 70.4604 356.468 73.8494 356.468 78.6987Z" fill="url(#paint41_radial_558_488)"/>
<g opacity="0.8" filter="url(#filter2_f_558_488)">
<path d="M355.098 82.223C355.098 87.3175 350.971 91.4473 345.879 91.4473C340.788 91.4473 336.66 87.3175 336.66 82.223C336.66 78.0976 339.199 75.2398 343.005 71.3873C344.581 69.7912 347.184 69.7853 348.762 71.3791C352.541 75.1926 355.098 78.107 355.098 82.223Z" fill="url(#paint42_radial_558_488)"/>
</g>
<g style="mix-blend-mode:color-burn" filter="url(#filter3_f_558_488)">
<path fill-rule="evenodd" clip-rule="evenodd" d="M355.896 82.089C353.972 84.6142 350.932 86.2439 347.512 86.2439C341.693 86.2439 336.976 81.5267 336.976 75.7078C336.976 74.3589 337.214 73.1286 337.655 71.9564C336.222 74.0397 335.396 76.1425 335.396 78.6579C335.396 84.4768 340.113 89.194 345.932 89.194C350.549 89.194 354.473 86.2234 355.896 82.089Z" fill="url(#paint43_radial_558_488)"/>
</g>
<g style="mix-blend-mode:screen" opacity="0.3">
<circle cx="349.408" cy="73.0092" r="10.0092" fill="url(#paint44_radial_558_488)"/>
</g>
<g style="mix-blend-mode:screen" opacity="0.7" filter="url(#filter4_f_558_488)">
<circle cx="341.506" cy="83.0185" r="10.0092" fill="url(#paint45_radial_558_488)"/>
</g>
<path d="M343.941 118.881C343.941 133.549 332.05 145.439 317.383 145.439C302.715 145.439 290.825 133.549 290.825 118.881C290.825 105.14 300.616 96.2834 314.519 82.2256C316.096 80.6311 318.676 80.6259 320.259 82.215C334.049 96.0649 343.941 105.151 343.941 118.881Z" fill="url(#paint46_radial_558_488)"/>
<g opacity="0.8" filter="url(#filter5_f_558_488)">
<path d="M340.49 127.765C340.49 140.606 330.086 151.016 317.252 151.016C304.418 151.016 294.014 140.606 294.014 127.765C294.014 115.854 302.41 108.135 314.383 96.0395C315.961 94.445 318.548 94.4393 320.132 96.0287C332.008 107.95 340.49 115.865 340.49 127.765Z" fill="url(#paint47_radial_558_488)"/>
</g>
<g style="mix-blend-mode:color-burn" filter="url(#filter6_f_558_488)">
<path fill-rule="evenodd" clip-rule="evenodd" d="M342.501 127.427C337.65 133.792 329.988 137.9 321.367 137.9C306.7 137.9 294.81 126.01 294.81 111.342C294.81 107.942 295.409 104.84 296.522 101.885C292.911 107.137 290.826 112.437 290.826 118.778C290.826 133.446 302.716 145.336 317.384 145.336C329.023 145.336 338.914 137.848 342.501 127.427Z" fill="url(#paint48_radial_558_488)"/>
</g>
<g style="mix-blend-mode:screen" opacity="0.3">
<circle cx="326.149" cy="104.54" r="25.2298" fill="url(#paint49_radial_558_488)"/>
</g>
<g style="mix-blend-mode:screen" opacity="0.7" filter="url(#filter7_f_558_488)">
<circle cx="306.23" cy="129.77" r="25.2298" fill="url(#paint50_radial_558_488)"/>
</g>
<path d="M231.719 166.197L237.972 161.359" stroke="#0DFF4D" stroke-width="0.3"/>
<path d="M231.719 166.197L237.972 161.359" stroke="#0DFF4D" stroke-width="0.3"/>
<path d="M231.719 166.197L237.972 161.359" stroke="#0DFF4D" stroke-width="0.3"/>
<path d="M231.72 166.197L226.302 163.432" stroke="#0DFF4D" stroke-width="0.3"/>
<path d="M231.72 166.197L226.302 163.432" stroke="#0DFF4D" stroke-width="0.3"/>
<path d="M231.72 166.197L226.302 163.432" stroke="#0DFF4D" stroke-width="0.3"/>
</g>
</g>
<defs>
<filter id="filter0_d_558_488" x="0" y="0" width="409" height="250" filterUnits="userSpaceOnUse" color-interpolation-filters="sRGB">
<feFlood flood-opacity="0" result="BackgroundImageFix"/>
<feColorMatrix in="SourceAlpha" type="matrix" values="0 0 0 0 0 0 0 0 0 0 0 0 0 0 0 0 0 0 127 0" result="hardAlpha"/>
<feOffset dy="4"/>
<feGaussianBlur stdDeviation="22.5"/>
<feComposite in2="hardAlpha" operator="out"/>
<feColorMatrix type="matrix" values="0 0 0 0 0.106736 0 0 0 0 0.664574 0 0 0 0 0.883333 0 0 0 0.08 0"/>
<feBlend mode="normal" in2="BackgroundImageFix" result="effect1_dropShadow_558_488"/>
<feBlend mode="normal" in="SourceGraphic" in2="effect1_dropShadow_558_488" result="shape"/>
</filter>
<filter id="filter1_f_558_488" x="41" y="128" width="140" height="88" filterUnits="userSpaceOnUse" color-interpolation-filters="sRGB">
<feFlood flood-opacity="0" result="BackgroundImageFix"/>
<feBlend mode="normal" in="SourceGraphic" in2="BackgroundImageFix" result="shape"/>
<feGaussianBlur stdDeviation="16" result="effect1_foregroundBlur_558_488"/>
</filter>
<filter id="filter2_f_558_488" x="236.66" y="-29.813" width="218.438" height="221.26" filterUnits="userSpaceOnUse" color-interpolation-filters="sRGB">
<feFlood flood-opacity="0" result="BackgroundImageFix"/>
<feBlend mode="normal" in="SourceGraphic" in2="BackgroundImageFix" result="shape"/>
<feGaussianBlur stdDeviation="50" result="effect1_foregroundBlur_558_488"/>
</filter>
<filter id="filter3_f_558_488" x="325.396" y="61.9564" width="40.501" height="37.2375" filterUnits="userSpaceOnUse" color-interpolation-filters="sRGB">
<feFlood flood-opacity="0" result="BackgroundImageFix"/>
<feBlend mode="normal" in="SourceGraphic" in2="BackgroundImageFix" result="shape"/>
<feGaussianBlur stdDeviation="5" result="effect1_foregroundBlur_558_488"/>
</filter>
<filter id="filter4_f_558_488" x="281.497" y="23.0092" width="120.019" height="120.018" filterUnits="userSpaceOnUse" color-interpolation-filters="sRGB">
<feFlood flood-opacity="0" result="BackgroundImageFix"/>
<feBlend mode="normal" in="SourceGraphic" in2="BackgroundImageFix" result="shape"/>
<feGaussianBlur stdDeviation="25" result="effect1_foregroundBlur_558_488"/>
</filter>
<filter id="filter5_f_558_488" x="194.014" y="-5.15991" width="246.476" height="256.176" filterUnits="userSpaceOnUse" color-interpolation-filters="sRGB">
<feFlood flood-opacity="0" result="BackgroundImageFix"/>
<feBlend mode="normal" in="SourceGraphic" in2="BackgroundImageFix" result="shape"/>
<feGaussianBlur stdDeviation="50" result="effect1_foregroundBlur_558_488"/>
</filter>
<filter id="filter6_f_558_488" x="280.826" y="91.8853" width="71.6748" height="63.4506" filterUnits="userSpaceOnUse" color-interpolation-filters="sRGB">
<feFlood flood-opacity="0" result="BackgroundImageFix"/>
<feBlend mode="normal" in="SourceGraphic" in2="BackgroundImageFix" result="shape"/>
<feGaussianBlur stdDeviation="5" result="effect1_foregroundBlur_558_488"/>
</filter>
<filter id="filter7_f_558_488" x="231" y="54.5402" width="150.46" height="150.46" filterUnits="userSpaceOnUse" color-interpolation-filters="sRGB">
<feFlood flood-opacity="0" result="BackgroundImageFix"/>
<feBlend mode="normal" in="SourceGraphic" in2="BackgroundImageFix" result="shape"/>
<feGaussianBlur stdDeviation="25" result="effect1_foregroundBlur_558_488"/>
</filter>
<linearGradient id="paint0_linear_558_488" x1="188.886" y1="103.775" x2="188.886" y2="310.045" gradientUnits="userSpaceOnUse">
<stop stop-color="#372611"/>
<stop offset="1" stop-color="#5DCCFC"/>
</linearGradient>
<linearGradient id="paint1_linear_558_488" x1="248.358" y1="120" x2="248.358" y2="127.016" gradientUnits="userSpaceOnUse">
<stop stop-color="#0DFF4D"/>
<stop offset="1" stop-color="#FFE605" stop-opacity="0.742865"/>
</linearGradient>
<linearGradient id="paint2_linear_558_488" x1="246.131" y1="126.845" x2="246.131" y2="133.863" gradientUnits="userSpaceOnUse">
<stop stop-color="#0DFF4D"/>
<stop offset="1" stop-color="#FFE605" stop-opacity="0.742865"/>
</linearGradient>
<linearGradient id="paint3_linear_558_488" x1="252.603" y1="122.323" x2="252.603" y2="128.867" gradientUnits="userSpaceOnUse">
<stop stop-color="#0DFF4D"/>
<stop offset="1" stop-color="#FFE605" stop-opacity="0.742865"/>
</linearGradient>
<linearGradient id="paint4_linear_558_488" x1="250.011" y1="130.911" x2="250.011" y2="136.921" gradientUnits="userSpaceOnUse">
<stop stop-color="#0DFF4D"/>
<stop offset="1" stop-color="#FFE605" stop-opacity="0.742865"/>
</linearGradient>
<linearGradient id="paint5_linear_558_488" x1="250.339" y1="138.766" x2="250.339" y2="145.778" gradientUnits="userSpaceOnUse">
<stop stop-color="#0DFF4D"/>
<stop offset="1" stop-color="#FFE605" stop-opacity="0.742865"/>
</linearGradient>
<linearGradient id="paint6_linear_558_488" x1="246.298" y1="140.391" x2="246.298" y2="147.912" gradientUnits="userSpaceOnUse">
<stop stop-color="#0DFF4D"/>
<stop offset="1" stop-color="#FFE605" stop-opacity="0.742865"/>
</linearGradient>
<linearGradient id="paint7_linear_558_488" x1="248.8" y1="147.293" x2="248.8" y2="154.309" gradientUnits="userSpaceOnUse">
<stop stop-color="#0DFF4D"/>
<stop offset="1" stop-color="#FFE605" stop-opacity="0.742865"/>
</linearGradient>
<linearGradient id="paint8_linear_558_488" x1="249.376" y1="152.215" x2="249.376" y2="160.028" gradientUnits="userSpaceOnUse">
<stop stop-color="#0DFF4D"/>
<stop offset="1" stop-color="#FFE605" stop-opacity="0.742865"/>
</linearGradient>
<linearGradient id="paint9_linear_558_488" x1="289.358" y1="112" x2="289.358" y2="119.016" gradientUnits="userSpaceOnUse">
<stop stop-color="#0DFF4D"/>
<stop offset="1" stop-color="#FFE605" stop-opacity="0.742865"/>
</linearGradient>
<linearGradient id="paint10_linear_558_488" x1="287.131" y1="118.845" x2="287.131" y2="125.863" gradientUnits="userSpaceOnUse">
<stop stop-color="#0DFF4D"/>
<stop offset="1" stop-color="#FFE605" stop-opacity="0.742865"/>
</linearGradient>
<linearGradient id="paint11_linear_558_488" x1="293.603" y1="114.323" x2="293.603" y2="120.867" gradientUnits="userSpaceOnUse">
<stop stop-color="#0DFF4D"/>
<stop offset="1" stop-color="#FFE605" stop-opacity="0.742865"/>
</linearGradient>
<linearGradient id="paint12_linear_558_488" x1="291.011" y1="122.911" x2="291.011" y2="128.921" gradientUnits="userSpaceOnUse">
<stop stop-color="#0DFF4D"/>
<stop offset="1" stop-color="#FFE605" stop-opacity="0.742865"/>
</linearGradient>
<linearGradient id="paint13_linear_558_488" x1="291.339" y1="130.766" x2="291.339" y2="137.778" gradientUnits="userSpaceOnUse">
<stop stop-color="#0DFF4D"/>
<stop offset="1" stop-color="#FFE605" stop-opacity="0.742865"/>
</linearGradient>
<linearGradient id="paint14_linear_558_488" x1="287.298" y1="132.391" x2="287.298" y2="139.912" gradientUnits="userSpaceOnUse">
<stop stop-color="#0DFF4D"/>
<stop offset="1" stop-color="#FFE605" stop-opacity="0.742865"/>
</linearGradient>
<linearGradient id="paint15_linear_558_488" x1="289.8" y1="139.293" x2="289.8" y2="146.309" gradientUnits="userSpaceOnUse">
<stop stop-color="#0DFF4D"/>
<stop offset="1" stop-color="#FFE605" stop-opacity="0.742865"/>
</linearGradient>
<linearGradient id="paint16_linear_558_488" x1="290.376" y1="144.215" x2="290.376" y2="152.028" gradientUnits="userSpaceOnUse">
<stop stop-color="#0DFF4D"/>
<stop offset="1" stop-color="#FFE605" stop-opacity="0.742865"/>
</linearGradient>
<linearGradient id="paint17_linear_558_488" x1="207.358" y1="111" x2="207.358" y2="118.016" gradientUnits="userSpaceOnUse">
<stop stop-color="#0DFF4D"/>
<stop offset="1" stop-color="#FFE605" stop-opacity="0.742865"/>
</linearGradient>
<linearGradient id="paint18_linear_558_488" x1="205.131" y1="117.845" x2="205.131" y2="124.863" gradientUnits="userSpaceOnUse">
<stop stop-color="#0DFF4D"/>
<stop offset="1" stop-color="#FFE605" stop-opacity="0.742865"/>
</linearGradient>
<linearGradient id="paint19_linear_558_488" x1="211.603" y1="113.323" x2="211.603" y2="119.867" gradientUnits="userSpaceOnUse">
<stop stop-color="#0DFF4D"/>
<stop offset="1" stop-color="#FFE605" stop-opacity="0.742865"/>
</linearGradient>
<linearGradient id="paint20_linear_558_488" x1="209.011" y1="121.911" x2="209.011" y2="127.921" gradientUnits="userSpaceOnUse">
<stop stop-color="#0DFF4D"/>
<stop offset="1" stop-color="#FFE605" stop-opacity="0.742865"/>
</linearGradient>
<linearGradient id="paint21_linear_558_488" x1="209.339" y1="129.766" x2="209.339" y2="136.778" gradientUnits="userSpaceOnUse">
<stop stop-color="#0DFF4D"/>
<stop offset="1" stop-color="#FFE605" stop-opacity="0.742865"/>
</linearGradient>
<linearGradient id="paint22_linear_558_488" x1="205.298" y1="131.391" x2="205.298" y2="138.912" gradientUnits="userSpaceOnUse">
<stop stop-color="#0DFF4D"/>
<stop offset="1" stop-color="#FFE605" stop-opacity="0.742865"/>
</linearGradient>
<linearGradient id="paint23_linear_558_488" x1="207.8" y1="138.293" x2="207.8" y2="145.309" gradientUnits="userSpaceOnUse">
<stop stop-color="#0DFF4D"/>
<stop offset="1" stop-color="#FFE605" stop-opacity="0.742865"/>
</linearGradient>
<linearGradient id="paint24_linear_558_488" x1="208.376" y1="143.215" x2="208.376" y2="151.028" gradientUnits="userSpaceOnUse">
<stop stop-color="#0DFF4D"/>
<stop offset="1" stop-color="#FFE605" stop-opacity="0.742865"/>
</linearGradient>
<linearGradient id="paint25_linear_558_488" x1="255.653" y1="99" x2="255.653" y2="103.272" gradientUnits="userSpaceOnUse">
<stop stop-color="#0DFF4D"/>
<stop offset="1" stop-color="#FFE605" stop-opacity="0.742865"/>
</linearGradient>
<linearGradient id="paint26_linear_558_488" x1="254.298" y1="103.169" x2="254.298" y2="107.442" gradientUnits="userSpaceOnUse">
<stop stop-color="#0DFF4D"/>
<stop offset="1" stop-color="#FFE605" stop-opacity="0.742865"/>
</linearGradient>
<linearGradient id="paint27_linear_558_488" x1="258.239" y1="100.415" x2="258.239" y2="104.4" gradientUnits="userSpaceOnUse">
<stop stop-color="#0DFF4D"/>
<stop offset="1" stop-color="#FFE605" stop-opacity="0.742865"/>
</linearGradient>
<linearGradient id="paint28_linear_558_488" x1="256.661" y1="105.645" x2="256.661" y2="109.305" gradientUnits="userSpaceOnUse">
<stop stop-color="#0DFF4D"/>
<stop offset="1" stop-color="#FFE605" stop-opacity="0.742865"/>
</linearGradient>
<linearGradient id="paint29_linear_558_488" x1="256.86" y1="110.428" x2="256.86" y2="114.698" gradientUnits="userSpaceOnUse">
<stop stop-color="#0DFF4D"/>
<stop offset="1" stop-color="#FFE605" stop-opacity="0.742865"/>
</linearGradient>
<linearGradient id="paint30_linear_558_488" x1="254.4" y1="111.418" x2="254.4" y2="115.998" gradientUnits="userSpaceOnUse">
<stop stop-color="#0DFF4D"/>
<stop offset="1" stop-color="#FFE605" stop-opacity="0.742865"/>
</linearGradient>
<linearGradient id="paint31_linear_558_488" x1="255.924" y1="115.621" x2="255.924" y2="119.894" gradientUnits="userSpaceOnUse">
<stop stop-color="#0DFF4D"/>
<stop offset="1" stop-color="#FFE605" stop-opacity="0.742865"/>
</linearGradient>
<linearGradient id="paint32_linear_558_488" x1="256.273" y1="118.618" x2="256.273" y2="123.376" gradientUnits="userSpaceOnUse">
<stop stop-color="#0DFF4D"/>
<stop offset="1" stop-color="#FFE605" stop-opacity="0.742865"/>
</linearGradient>
<linearGradient id="paint33_linear_558_488" x1="332.653" y1="100" x2="332.653" y2="104.272" gradientUnits="userSpaceOnUse">
<stop stop-color="#0DFF4D"/>
<stop offset="1" stop-color="#FFE605" stop-opacity="0.742865"/>
</linearGradient>
<linearGradient id="paint34_linear_558_488" x1="331.298" y1="104.169" x2="331.298" y2="108.442" gradientUnits="userSpaceOnUse">
<stop stop-color="#0DFF4D"/>
<stop offset="1" stop-color="#FFE605" stop-opacity="0.742865"/>
</linearGradient>
<linearGradient id="paint35_linear_558_488" x1="335.239" y1="101.415" x2="335.239" y2="105.4" gradientUnits="userSpaceOnUse">
<stop stop-color="#0DFF4D"/>
<stop offset="1" stop-color="#FFE605" stop-opacity="0.742865"/>
</linearGradient>
<linearGradient id="paint36_linear_558_488" x1="333.661" y1="106.645" x2="333.661" y2="110.305" gradientUnits="userSpaceOnUse">
<stop stop-color="#0DFF4D"/>
<stop offset="1" stop-color="#FFE605" stop-opacity="0.742865"/>
</linearGradient>
<linearGradient id="paint37_linear_558_488" x1="333.86" y1="111.428" x2="333.86" y2="115.698" gradientUnits="userSpaceOnUse">
<stop stop-color="#0DFF4D"/>
<stop offset="1" stop-color="#FFE605" stop-opacity="0.742865"/>
</linearGradient>
<linearGradient id="paint38_linear_558_488" x1="331.4" y1="112.418" x2="331.4" y2="116.998" gradientUnits="userSpaceOnUse">
<stop stop-color="#0DFF4D"/>
<stop offset="1" stop-color="#FFE605" stop-opacity="0.742865"/>
</linearGradient>
<linearGradient id="paint39_linear_558_488" x1="332.924" y1="116.621" x2="332.924" y2="120.894" gradientUnits="userSpaceOnUse">
<stop stop-color="#0DFF4D"/>
<stop offset="1" stop-color="#FFE605" stop-opacity="0.742865"/>
</linearGradient>
<linearGradient id="paint40_linear_558_488" x1="333.273" y1="119.618" x2="333.273" y2="124.376" gradientUnits="userSpaceOnUse">
<stop stop-color="#0DFF4D"/>
<stop offset="1" stop-color="#FFE605" stop-opacity="0.742865"/>
</linearGradient>
<radialGradient id="paint41_radial_558_488" cx="0" cy="0" r="1" gradientUnits="userSpaceOnUse" gradientTransform="translate(345.932 82.281) rotate(-46.0086) scale(21.1616 16.9973)">
<stop offset="0.109324" stop-color="#3CC7F5"/>
<stop offset="1" stop-color="#5686F5"/>
</radialGradient>
<radialGradient id="paint42_radial_558_488" cx="0" cy="0" r="1" gradientUnits="userSpaceOnUse" gradientTransform="translate(345.879 85.3593) rotate(-46.025) scale(18.5219 14.8767)">
<stop offset="0.109324" stop-color="#3CC7F5"/>
<stop offset="1" stop-color="#5686F5"/>
</radialGradient>
<radialGradient id="paint43_radial_558_488" cx="0" cy="0" r="1" gradientUnits="userSpaceOnUse" gradientTransform="translate(345.932 82.2404) rotate(-46.0073) scale(21.1613 16.997)">
<stop offset="0.109324" stop-color="#3CC7F5"/>
<stop offset="1" stop-color="#5686F5"/>
</radialGradient>
<radialGradient id="paint44_radial_558_488" cx="0" cy="0" r="1" gradientUnits="userSpaceOnUse" gradientTransform="translate(349.408 73.0092) rotate(51.5592) scale(10.7613 2.43606)">
<stop stop-color="white"/>
<stop offset="0.601048" stop-color="#BDDBF1" stop-opacity="0.28"/>
<stop offset="1" stop-color="#5686F5" stop-opacity="0"/>
</radialGradient>
<radialGradient id="paint45_radial_558_488" cx="0" cy="0" r="1" gradientUnits="userSpaceOnUse" gradientTransform="translate(341.506 83.0185) rotate(50.1428) scale(7.48022 7.43537)">
<stop stop-color="white"/>
<stop offset="0.601048" stop-color="#BDDBF1" stop-opacity="0.28"/>
<stop offset="1" stop-color="#5686F5" stop-opacity="0"/>
</radialGradient>
<radialGradient id="paint46_radial_558_488" cx="0" cy="0" r="1" gradientUnits="userSpaceOnUse" gradientTransform="translate(317.383 127.911) rotate(-46.0086) scale(53.341 42.8442)">
<stop offset="0.109324" stop-color="#3CC7F5"/>
<stop offset="1" stop-color="#5686F5"/>
</radialGradient>
<radialGradient id="paint47_radial_558_488" cx="0" cy="0" r="1" gradientUnits="userSpaceOnUse" gradientTransform="translate(317.252 135.67) rotate(-46.025) scale(46.6873 37.499)">
<stop offset="0.109324" stop-color="#3CC7F5"/>
<stop offset="1" stop-color="#5686F5"/>
</radialGradient>
<radialGradient id="paint48_radial_558_488" cx="0" cy="0" r="1" gradientUnits="userSpaceOnUse" gradientTransform="translate(317.384 127.808) rotate(-46.0079) scale(53.3406 42.8439)">
<stop offset="0.109324" stop-color="#3CC7F5"/>
<stop offset="1" stop-color="#5686F5"/>
</radialGradient>
<radialGradient id="paint49_radial_558_488" cx="0" cy="0" r="1" gradientUnits="userSpaceOnUse" gradientTransform="translate(326.149 104.54) rotate(51.5592) scale(27.1256 6.14046)">
<stop stop-color="white"/>
<stop offset="0.601048" stop-color="#BDDBF1" stop-opacity="0.28"/>
<stop offset="1" stop-color="#5686F5" stop-opacity="0"/>
</radialGradient>
<radialGradient id="paint50_radial_558_488" cx="0" cy="0" r="1" gradientUnits="userSpaceOnUse" gradientTransform="translate(306.23 129.77) rotate(50.1428) scale(18.855 18.742)">
<stop stop-color="white"/>
<stop offset="0.601048" stop-color="#BDDBF1" stop-opacity="0.28"/>
<stop offset="1" stop-color="#5686F5" stop-opacity="0"/>
</radialGradient>
<clipPath id="clip0_558_488">
<rect x="45" y="41" width="319" height="160" rx="16" fill="white"/>
</clipPath>
</defs>
</svg>
