<svg width="172" height="172" viewBox="0 0 172 172" fill="none" xmlns="http://www.w3.org/2000/svg">
<g clip-path="url(#clip0_562_1072)">
<rect x="8" y="8" width="156" height="156" rx="78" fill="white"/>
<path d="M97.4887 40.0406C97.4887 40.0406 97.4887 38.9453 95.9543 37.4109C94.4199 35.8765 93.4331 35 93.4331 35C93.4331 35 92.6651 37.5211 94.091 39.0555C95.5169 40.5899 97.4887 42.0158 97.4887 42.0158V40.0406Z" fill="#34A853"/>
<path d="M95.2621 46.8859C95.2621 46.8859 95.2621 45.7906 93.7277 44.2562C92.1933 42.7219 91.2066 41.8453 91.2066 41.8453C91.2066 41.8453 90.4385 44.3665 91.8644 45.9026C93.2903 47.4387 95.2621 48.8628 95.2621 48.8628V46.8859Z" fill="#34A853"/>
<path d="M97.3922 41.9073C97.3922 41.9073 97.5076 40.8172 99.197 39.4534C100.886 38.0895 101.952 37.3231 101.952 37.3231C101.952 37.3231 102.45 39.9063 100.871 41.2839C99.2917 42.6616 97.1787 43.8671 97.1787 43.8671L97.3922 41.9073Z" fill="#34A853"/>
<path d="M94.7024 49.9926C94.7024 49.9926 94.9314 48.9214 96.7534 47.7418C98.5754 46.5621 99.724 45.9112 99.724 45.9112C99.724 45.9112 99.9461 48.5374 98.2309 49.7394C96.5157 50.9414 94.2891 51.9213 94.2891 51.9213L94.7024 49.9926Z" fill="#34A853"/>
<path d="M95.207 58.8063C95.207 58.8063 95.207 57.711 96.7431 56.1766C98.2793 54.6422 99.2626 53.7657 99.2626 53.7657C99.2626 53.7657 100.031 56.2851 98.6133 57.8178C97.1961 59.3504 95.2139 60.7781 95.2139 60.7781L95.207 58.8063Z" fill="#34A853"/>
<path d="M95.1828 60.9588C95.1828 60.9588 95.3377 59.8739 94.0376 58.1363C92.7374 56.3987 91.8832 55.3913 91.8832 55.3913C91.8832 55.3913 90.7656 57.7781 91.959 59.4985C93.1524 61.2189 94.9021 62.9117 94.9021 62.9117L95.1828 60.9588Z" fill="#34A853"/>
<path d="M93.6689 67.334C93.6689 67.334 93.6689 66.2388 95.2033 64.7044C96.7377 63.17 97.7245 62.2935 97.7245 62.2935C97.7245 62.2935 98.4908 64.8146 97.0666 66.349C95.6425 67.8834 93.6689 69.3093 93.6689 69.3093V67.334Z" fill="#34A853"/>
<path d="M94.6944 73.1151C94.6944 73.1151 94.4172 72.0543 95.5124 70.1875C96.6077 68.3208 97.3413 67.2152 97.3413 67.2152C97.3413 67.2152 98.7189 69.4539 97.7322 71.3052C96.7454 73.1564 95.1938 75.0284 95.1938 75.0284L94.6944 73.1151Z" fill="#34A853"/>
<path d="M97.6286 39.7599C97.5505 40.901 97.4102 42.0369 97.2084 43.1627C96.6005 46.297 95.0851 48.329 94.4789 51.1498C93.8727 53.9706 95.6138 57.6283 95.1471 61.2637C94.6804 64.899 93.2648 66.9225 93.6695 69.3489C94.0742 71.7753 96.2527 78.476 96.2527 78.476" stroke="#263238" stroke-linecap="round" stroke-linejoin="round"/>
<path d="M97.377 42.6358L99.0319 41.3666" stroke="#263238" stroke-linecap="round" stroke-linejoin="round"/>
<path d="M97.454 41.1754L96.7617 39.9441" stroke="#263238" stroke-linecap="round" stroke-linejoin="round"/>
<path d="M94.5693 51.0206C94.5693 51.0206 95.947 49.9874 97.3764 48.9438" stroke="#263238" stroke-linecap="round" stroke-linejoin="round"/>
<path d="M95.2626 48.8629C95.2626 48.8629 94.1088 46.6018 92.8018 45.1018" stroke="#263238" stroke-linecap="round" stroke-linejoin="round"/>
<path d="M95.2617 60.3665C96.052 58.9097 97.0497 57.5755 98.2237 56.4056" stroke="#263238" stroke-linecap="round" stroke-linejoin="round"/>
<path d="M94.9972 61.9043C94.5768 60.9156 94.0751 59.9634 93.4973 59.0577C92.6896 57.866 92.5742 57.7127 92.5742 57.7127" stroke="#263238" stroke-linecap="round" stroke-linejoin="round"/>
<path d="M93.6689 69.3558C94.0194 68.4847 94.4362 67.6418 94.9157 66.8346C95.3945 66.0817 95.9348 65.3698 96.5311 64.7061" stroke="#263238" stroke-linecap="round" stroke-linejoin="round"/>
<path d="M95.1928 75.0232C95.1928 75.0232 95.0309 73.711 95.6078 72.5968C96.1847 71.4826 96.8391 70.0136 97.1078 69.4419" stroke="#263238" stroke-linecap="round" stroke-linejoin="round"/>
<path d="M137.489 40.0406C137.489 40.0406 137.489 38.9453 135.954 37.4109C134.42 35.8765 133.433 35 133.433 35C133.433 35 132.665 37.5211 134.091 39.0555C135.517 40.5899 137.489 42.0158 137.489 42.0158V40.0406Z" fill="#34A853"/>
<path d="M135.262 46.8859C135.262 46.8859 135.262 45.7906 133.728 44.2562C132.193 42.7219 131.207 41.8453 131.207 41.8453C131.207 41.8453 130.439 44.3665 131.864 45.9026C133.29 47.4387 135.262 48.8628 135.262 48.8628V46.8859Z" fill="#34A853"/>
<path d="M137.392 41.9073C137.392 41.9073 137.508 40.8172 139.197 39.4534C140.886 38.0895 141.952 37.3231 141.952 37.3231C141.952 37.3231 142.45 39.9063 140.871 41.2839C139.292 42.6616 137.179 43.8671 137.179 43.8671L137.392 41.9073Z" fill="#34A853"/>
<path d="M134.702 49.9926C134.702 49.9926 134.931 48.9214 136.753 47.7418C138.575 46.5621 139.724 45.9112 139.724 45.9112C139.724 45.9112 139.946 48.5374 138.231 49.7394C136.516 50.9414 134.289 51.9213 134.289 51.9213L134.702 49.9926Z" fill="#34A853"/>
<path d="M135.207 58.8063C135.207 58.8063 135.207 57.711 136.743 56.1766C138.279 54.6422 139.263 53.7657 139.263 53.7657C139.263 53.7657 140.031 56.2851 138.613 57.8178C137.196 59.3504 135.214 60.7781 135.214 60.7781L135.207 58.8063Z" fill="#34A853"/>
<path d="M135.183 60.9588C135.183 60.9588 135.338 59.8739 134.038 58.1363C132.737 56.3987 131.883 55.3913 131.883 55.3913C131.883 55.3913 130.766 57.7781 131.959 59.4985C133.152 61.2189 134.902 62.9117 134.902 62.9117L135.183 60.9588Z" fill="#34A853"/>
<path d="M133.669 67.334C133.669 67.334 133.669 66.2388 135.203 64.7044C136.738 63.17 137.724 62.2935 137.724 62.2935C137.724 62.2935 138.491 64.8146 137.067 66.349C135.642 67.8834 133.669 69.3093 133.669 69.3093V67.334Z" fill="#34A853"/>
<path d="M134.694 73.1151C134.694 73.1151 134.417 72.0543 135.512 70.1875C136.608 68.3208 137.341 67.2152 137.341 67.2152C137.341 67.2152 138.719 69.4539 137.732 71.3052C136.745 73.1564 135.194 75.0284 135.194 75.0284L134.694 73.1151Z" fill="#34A853"/>
<path d="M137.629 39.7599C137.551 40.901 137.41 42.0369 137.208 43.1627C136.601 46.297 135.085 48.329 134.479 51.1498C133.873 53.9706 135.614 57.6283 135.147 61.2637C134.68 64.899 133.265 66.9225 133.67 69.3489C134.074 71.7753 136.253 78.476 136.253 78.476" stroke="#263238" stroke-linecap="round" stroke-linejoin="round"/>
<path d="M137.377 42.6358L139.032 41.3666" stroke="#263238" stroke-linecap="round" stroke-linejoin="round"/>
<path d="M137.454 41.1754L136.762 39.9441" stroke="#263238" stroke-linecap="round" stroke-linejoin="round"/>
<path d="M134.569 51.0206C134.569 51.0206 135.947 49.9874 137.376 48.9438" stroke="#263238" stroke-linecap="round" stroke-linejoin="round"/>
<path d="M135.263 48.8629C135.263 48.8629 134.109 46.6018 132.802 45.1018" stroke="#263238" stroke-linecap="round" stroke-linejoin="round"/>
<path d="M135.262 60.3665C136.052 58.9097 137.05 57.5755 138.224 56.4056" stroke="#263238" stroke-linecap="round" stroke-linejoin="round"/>
<path d="M134.997 61.9043C134.577 60.9156 134.075 59.9634 133.497 59.0577C132.69 57.866 132.574 57.7127 132.574 57.7127" stroke="#263238" stroke-linecap="round" stroke-linejoin="round"/>
<path d="M133.669 69.3558C134.019 68.4847 134.436 67.6418 134.916 66.8346C135.394 66.0817 135.935 65.3698 136.531 64.7061" stroke="#263238" stroke-linecap="round" stroke-linejoin="round"/>
<path d="M135.193 75.0232C135.193 75.0232 135.031 73.711 135.608 72.5968C136.185 71.4826 136.839 70.0136 137.108 69.4419" stroke="#263238" stroke-linecap="round" stroke-linejoin="round"/>
<path d="M64.4887 33.0406C64.4887 33.0406 64.4887 31.9453 62.9543 30.4109C61.4199 28.8765 60.4331 28 60.4331 28C60.4331 28 59.6651 30.5211 61.091 32.0555C62.5169 33.5899 64.4887 35.0158 64.4887 35.0158V33.0406Z" fill="#34A853"/>
<path d="M62.2621 39.8859C62.2621 39.8859 62.2621 38.7906 60.7277 37.2562C59.1933 35.7219 58.2066 34.8453 58.2066 34.8453C58.2066 34.8453 57.4385 37.3665 58.8644 38.9026C60.2903 40.4387 62.2621 41.8628 62.2621 41.8628V39.8859Z" fill="#34A853"/>
<path d="M64.3922 34.9073C64.3922 34.9073 64.5076 33.8172 66.197 32.4534C67.8864 31.0895 68.9524 30.3231 68.9524 30.3231C68.9524 30.3231 69.45 32.9063 67.8709 34.2839C66.2917 35.6616 64.1787 36.8671 64.1787 36.8671L64.3922 34.9073Z" fill="#34A853"/>
<path d="M61.7024 42.9926C61.7024 42.9926 61.9314 41.9214 63.7534 40.7418C65.5754 39.5621 66.724 38.9112 66.724 38.9112C66.724 38.9112 66.9461 41.5374 65.2309 42.7394C63.5157 43.9414 61.2891 44.9213 61.2891 44.9213L61.7024 42.9926Z" fill="#34A853"/>
<path d="M62.207 51.8062C62.207 51.8062 62.207 50.711 63.7431 49.1766C65.2793 47.6422 66.2626 46.7657 66.2626 46.7657C66.2626 46.7657 67.0306 49.2851 65.6133 50.8177C64.1961 52.3504 62.2139 53.778 62.2139 53.778L62.207 51.8062Z" fill="#34A853"/>
<path d="M62.1828 53.9588C62.1828 53.9588 62.3377 52.8739 61.0376 51.1363C59.7374 49.3987 58.8832 48.3913 58.8832 48.3913C58.8832 48.3913 57.7656 50.7781 58.959 52.4985C60.1524 54.2189 61.9021 55.9117 61.9021 55.9117L62.1828 53.9588Z" fill="#34A853"/>
<path d="M60.6689 60.334C60.6689 60.334 60.6689 59.2388 62.2033 57.7044C63.7377 56.17 64.7245 55.2935 64.7245 55.2935C64.7245 55.2935 65.4908 57.8146 64.0666 59.349C62.6425 60.8834 60.6689 62.3093 60.6689 62.3093V60.334Z" fill="#34A853"/>
<path d="M61.6944 66.1151C61.6944 66.1151 61.4172 65.0543 62.5124 63.1875C63.6077 61.3208 64.3413 60.2152 64.3413 60.2152C64.3413 60.2152 65.7189 62.4539 64.7322 64.3052C63.7454 66.1564 62.1938 68.0284 62.1938 68.0284L61.6944 66.1151Z" fill="#34A853"/>
<path d="M64.6286 32.7599C64.5505 33.901 64.4102 35.0369 64.2084 36.1627C63.6005 39.297 62.0851 41.329 61.4789 44.1498C60.8727 46.9706 62.6138 50.6283 62.1471 54.2637C61.6804 57.899 60.2648 59.9225 60.6695 62.3489C61.0742 64.7753 63.2527 71.476 63.2527 71.476" stroke="#263238" stroke-linecap="round" stroke-linejoin="round"/>
<path d="M64.377 35.6358L66.0319 34.3666" stroke="#263238" stroke-linecap="round" stroke-linejoin="round"/>
<path d="M64.454 34.1754L63.7617 32.9441" stroke="#263238" stroke-linecap="round" stroke-linejoin="round"/>
<path d="M61.5693 44.0207C61.5693 44.0207 62.947 42.9874 64.3764 41.9438" stroke="#263238" stroke-linecap="round" stroke-linejoin="round"/>
<path d="M62.2626 41.8629C62.2626 41.8629 61.1088 39.6018 59.8018 38.1018" stroke="#263238" stroke-linecap="round" stroke-linejoin="round"/>
<path d="M62.2617 53.3665C63.052 51.9097 64.0497 50.5755 65.2237 49.4056" stroke="#263238" stroke-linecap="round" stroke-linejoin="round"/>
<path d="M61.9972 54.9043C61.5768 53.9156 61.0751 52.9634 60.4973 52.0577C59.6896 50.866 59.5742 50.7127 59.5742 50.7127" stroke="#263238" stroke-linecap="round" stroke-linejoin="round"/>
<path d="M60.6689 62.3558C61.0194 61.4847 61.4362 60.6418 61.9157 59.8346C62.3945 59.0817 62.9348 58.3698 63.5311 57.7061" stroke="#263238" stroke-linecap="round" stroke-linejoin="round"/>
<path d="M62.1928 68.0232C62.1928 68.0232 62.0309 66.711 62.6078 65.5968C63.1847 64.4826 63.8391 63.0136 64.1078 62.4419" stroke="#263238" stroke-linecap="round" stroke-linejoin="round"/>
<path d="M104.489 63.0406C104.489 63.0406 104.489 61.9453 102.954 60.4109C101.42 58.8765 100.433 58 100.433 58C100.433 58 99.6651 60.5211 101.091 62.0555C102.517 63.5899 104.489 65.0158 104.489 65.0158V63.0406Z" fill="url(#paint0_linear_562_1072)"/>
<path d="M102.262 69.8859C102.262 69.8859 102.262 68.7907 100.728 67.2563C99.1933 65.7219 98.2066 64.8453 98.2066 64.8453C98.2066 64.8453 97.4385 67.3665 98.8644 68.9026C100.29 70.4387 102.262 71.8629 102.262 71.8629V69.8859Z" fill="url(#paint1_linear_562_1072)"/>
<path d="M104.392 64.9073C104.392 64.9073 104.508 63.8172 106.197 62.4534C107.886 61.0895 108.952 60.3231 108.952 60.3231C108.952 60.3231 109.45 62.9063 107.871 64.2839C106.292 65.6616 104.179 66.8671 104.179 66.8671L104.392 64.9073Z" fill="url(#paint2_linear_562_1072)"/>
<path d="M101.702 72.9926C101.702 72.9926 101.931 71.9214 103.753 70.7418C105.575 69.5621 106.724 68.9112 106.724 68.9112C106.724 68.9112 106.946 71.5374 105.231 72.7394C103.516 73.9414 101.289 74.9213 101.289 74.9213L101.702 72.9926Z" fill="url(#paint3_linear_562_1072)"/>
<path d="M102.207 81.8063C102.207 81.8063 102.207 80.711 103.743 79.1766C105.279 77.6422 106.263 76.7657 106.263 76.7657C106.263 76.7657 107.031 79.2851 105.613 80.8178C104.196 82.3504 102.214 83.7781 102.214 83.7781L102.207 81.8063Z" fill="url(#paint4_linear_562_1072)"/>
<path d="M102.183 83.9588C102.183 83.9588 102.338 82.8739 101.038 81.1363C99.7374 79.3987 98.8832 78.3913 98.8832 78.3913C98.8832 78.3913 97.7656 80.7781 98.959 82.4985C100.152 84.2189 101.902 85.9117 101.902 85.9117L102.183 83.9588Z" fill="url(#paint5_linear_562_1072)"/>
<path d="M100.669 90.334C100.669 90.334 100.669 89.2388 102.203 87.7044C103.738 86.17 104.724 85.2935 104.724 85.2935C104.724 85.2935 105.491 87.8146 104.067 89.349C102.642 90.8834 100.669 92.3093 100.669 92.3093V90.334Z" fill="url(#paint6_linear_562_1072)"/>
<path d="M101.694 96.1151C101.694 96.1151 101.417 95.0543 102.512 93.1875C103.608 91.3208 104.341 90.2152 104.341 90.2152C104.341 90.2152 105.719 92.4539 104.732 94.3052C103.745 96.1564 102.194 98.0284 102.194 98.0284L101.694 96.1151Z" fill="url(#paint7_linear_562_1072)"/>
<path d="M104.629 62.7599C104.551 63.901 104.41 65.0369 104.208 66.1627C103.601 69.297 102.085 71.329 101.479 74.1498C100.873 76.9706 102.614 80.6283 102.147 84.2637C101.68 87.899 100.265 89.9225 100.67 92.3489C101.074 94.7753 103.253 101.476 103.253 101.476" stroke="#263238" stroke-width="0.3" stroke-linecap="round" stroke-linejoin="round"/>
<path d="M104.377 65.6358L106.032 64.3666" stroke="#263238" stroke-width="0.3" stroke-linecap="round" stroke-linejoin="round"/>
<path d="M104.454 64.1754L103.762 62.9442" stroke="#263238" stroke-width="0.3" stroke-linecap="round" stroke-linejoin="round"/>
<path d="M101.569 74.0206C101.569 74.0206 102.947 72.9874 104.376 71.9438" stroke="#263238" stroke-width="0.3" stroke-linecap="round" stroke-linejoin="round"/>
<path d="M102.263 71.8629C102.263 71.8629 101.109 69.6018 99.8018 68.1018" stroke="#263238" stroke-width="0.3" stroke-linecap="round" stroke-linejoin="round"/>
<path d="M102.262 83.3665C103.052 81.9097 104.05 80.5755 105.224 79.4056" stroke="#263238" stroke-width="0.3" stroke-linecap="round" stroke-linejoin="round"/>
<path d="M101.997 84.9043C101.577 83.9156 101.075 82.9634 100.497 82.0577C99.6896 80.866 99.5742 80.7127 99.5742 80.7127" stroke="#263238" stroke-width="0.3" stroke-linecap="round" stroke-linejoin="round"/>
<path d="M100.669 92.3558C101.019 91.4847 101.436 90.6418 101.916 89.8346C102.394 89.0817 102.935 88.3698 103.531 87.7061" stroke="#263238" stroke-width="0.3" stroke-linecap="round" stroke-linejoin="round"/>
<path d="M102.193 98.0232C102.193 98.0232 102.031 96.711 102.608 95.5968C103.185 94.4826 103.839 93.0136 104.108 92.4419" stroke="#263238" stroke-width="0.3" stroke-linecap="round" stroke-linejoin="round"/>
<path d="M144.489 63.0406C144.489 63.0406 144.489 61.9453 142.954 60.4109C141.42 58.8765 140.433 58 140.433 58C140.433 58 139.665 60.5211 141.091 62.0555C142.517 63.5899 144.489 65.0158 144.489 65.0158V63.0406Z" fill="url(#paint8_linear_562_1072)"/>
<path d="M142.262 69.8859C142.262 69.8859 142.262 68.7907 140.728 67.2563C139.193 65.7219 138.207 64.8453 138.207 64.8453C138.207 64.8453 137.439 67.3665 138.864 68.9026C140.29 70.4387 142.262 71.8629 142.262 71.8629V69.8859Z" fill="url(#paint9_linear_562_1072)"/>
<path d="M144.392 64.9073C144.392 64.9073 144.508 63.8172 146.197 62.4534C147.886 61.0895 148.952 60.3231 148.952 60.3231C148.952 60.3231 149.45 62.9063 147.871 64.2839C146.292 65.6616 144.179 66.8671 144.179 66.8671L144.392 64.9073Z" fill="url(#paint10_linear_562_1072)"/>
<path d="M141.702 72.9926C141.702 72.9926 141.931 71.9214 143.753 70.7418C145.575 69.5621 146.724 68.9112 146.724 68.9112C146.724 68.9112 146.946 71.5374 145.231 72.7394C143.516 73.9414 141.289 74.9213 141.289 74.9213L141.702 72.9926Z" fill="url(#paint11_linear_562_1072)"/>
<path d="M142.207 81.8063C142.207 81.8063 142.207 80.711 143.743 79.1766C145.279 77.6422 146.263 76.7657 146.263 76.7657C146.263 76.7657 147.031 79.2851 145.613 80.8178C144.196 82.3504 142.214 83.7781 142.214 83.7781L142.207 81.8063Z" fill="url(#paint12_linear_562_1072)"/>
<path d="M142.183 83.9588C142.183 83.9588 142.338 82.8739 141.038 81.1363C139.737 79.3987 138.883 78.3913 138.883 78.3913C138.883 78.3913 137.766 80.7781 138.959 82.4985C140.152 84.2189 141.902 85.9117 141.902 85.9117L142.183 83.9588Z" fill="url(#paint13_linear_562_1072)"/>
<path d="M140.669 90.334C140.669 90.334 140.669 89.2388 142.203 87.7044C143.738 86.17 144.724 85.2935 144.724 85.2935C144.724 85.2935 145.491 87.8146 144.067 89.349C142.642 90.8834 140.669 92.3093 140.669 92.3093V90.334Z" fill="url(#paint14_linear_562_1072)"/>
<path d="M141.694 96.1151C141.694 96.1151 141.417 95.0543 142.512 93.1875C143.608 91.3208 144.341 90.2152 144.341 90.2152C144.341 90.2152 145.719 92.4539 144.732 94.3052C143.745 96.1564 142.194 98.0284 142.194 98.0284L141.694 96.1151Z" fill="url(#paint15_linear_562_1072)"/>
<path d="M144.629 62.7599C144.551 63.901 144.41 65.0369 144.208 66.1627C143.601 69.297 142.085 71.329 141.479 74.1498C140.873 76.9706 142.614 80.6283 142.147 84.2637C141.68 87.899 140.265 89.9225 140.67 92.3489C141.074 94.7753 143.253 101.476 143.253 101.476" stroke="#263238" stroke-width="0.3" stroke-linecap="round" stroke-linejoin="round"/>
<path d="M144.377 65.6358L146.032 64.3666" stroke="#263238" stroke-width="0.3" stroke-linecap="round" stroke-linejoin="round"/>
<path d="M144.454 64.1754L143.762 62.9442" stroke="#263238" stroke-width="0.3" stroke-linecap="round" stroke-linejoin="round"/>
<path d="M141.569 74.0206C141.569 74.0206 142.947 72.9874 144.376 71.9438" stroke="#263238" stroke-width="0.3" stroke-linecap="round" stroke-linejoin="round"/>
<path d="M142.263 71.8629C142.263 71.8629 141.109 69.6018 139.802 68.1018" stroke="#263238" stroke-width="0.3" stroke-linecap="round" stroke-linejoin="round"/>
<path d="M142.262 83.3665C143.052 81.9097 144.05 80.5755 145.224 79.4056" stroke="#263238" stroke-width="0.3" stroke-linecap="round" stroke-linejoin="round"/>
<path d="M141.997 84.9043C141.577 83.9156 141.075 82.9634 140.497 82.0577C139.69 80.866 139.574 80.7127 139.574 80.7127" stroke="#263238" stroke-width="0.3" stroke-linecap="round" stroke-linejoin="round"/>
<path d="M140.669 92.3558C141.019 91.4847 141.436 90.6418 141.916 89.8346C142.394 89.0817 142.935 88.3698 143.531 87.7061" stroke="#263238" stroke-width="0.3" stroke-linecap="round" stroke-linejoin="round"/>
<path d="M142.193 98.0232C142.193 98.0232 142.031 96.711 142.608 95.5968C143.185 94.4826 143.839 93.0136 144.108 92.4419" stroke="#263238" stroke-width="0.3" stroke-linecap="round" stroke-linejoin="round"/>
<path d="M71.4887 56.0406C71.4887 56.0406 71.4887 54.9453 69.9543 53.4109C68.4199 51.8765 67.4331 51 67.4331 51C67.4331 51 66.6651 53.5211 68.091 55.0555C69.5169 56.5899 71.4887 58.0158 71.4887 58.0158V56.0406Z" fill="url(#paint16_linear_562_1072)"/>
<path d="M69.2621 62.8859C69.2621 62.8859 69.2621 61.7907 67.7277 60.2563C66.1933 58.7219 65.2066 57.8453 65.2066 57.8453C65.2066 57.8453 64.4385 60.3665 65.8644 61.9026C67.2903 63.4387 69.2621 64.8629 69.2621 64.8629V62.8859Z" fill="url(#paint17_linear_562_1072)"/>
<path d="M71.3922 57.9073C71.3922 57.9073 71.5076 56.8172 73.197 55.4534C74.8864 54.0895 75.9524 53.3231 75.9524 53.3231C75.9524 53.3231 76.45 55.9063 74.8709 57.2839C73.2917 58.6616 71.1787 59.8671 71.1787 59.8671L71.3922 57.9073Z" fill="url(#paint18_linear_562_1072)"/>
<path d="M68.7024 65.9926C68.7024 65.9926 68.9314 64.9214 70.7534 63.7418C72.5754 62.5621 73.724 61.9112 73.724 61.9112C73.724 61.9112 73.9461 64.5374 72.2309 65.7394C70.5157 66.9414 68.2891 67.9213 68.2891 67.9213L68.7024 65.9926Z" fill="url(#paint19_linear_562_1072)"/>
<path d="M69.207 74.8063C69.207 74.8063 69.207 73.711 70.7431 72.1766C72.2793 70.6422 73.2626 69.7657 73.2626 69.7657C73.2626 69.7657 74.0306 72.2851 72.6133 73.8178C71.1961 75.3504 69.2139 76.7781 69.2139 76.7781L69.207 74.8063Z" fill="url(#paint20_linear_562_1072)"/>
<path d="M69.1828 76.9588C69.1828 76.9588 69.3377 75.8739 68.0376 74.1363C66.7374 72.3987 65.8832 71.3913 65.8832 71.3913C65.8832 71.3913 64.7656 73.7781 65.959 75.4985C67.1524 77.2189 68.9021 78.9117 68.9021 78.9117L69.1828 76.9588Z" fill="url(#paint21_linear_562_1072)"/>
<path d="M67.6689 83.334C67.6689 83.334 67.6689 82.2388 69.2033 80.7044C70.7377 79.17 71.7245 78.2935 71.7245 78.2935C71.7245 78.2935 72.4908 80.8146 71.0666 82.349C69.6425 83.8834 67.6689 85.3093 67.6689 85.3093V83.334Z" fill="url(#paint22_linear_562_1072)"/>
<path d="M68.6944 89.1151C68.6944 89.1151 68.4172 88.0543 69.5124 86.1875C70.6077 84.3208 71.3413 83.2152 71.3413 83.2152C71.3413 83.2152 72.7189 85.4539 71.7322 87.3052C70.7454 89.1564 69.1938 91.0284 69.1938 91.0284L68.6944 89.1151Z" fill="url(#paint23_linear_562_1072)"/>
<path d="M71.6286 55.7599C71.5505 56.901 71.4102 58.0369 71.2084 59.1627C70.6005 62.297 69.0851 64.329 68.4789 67.1498C67.8727 69.9706 69.6138 73.6283 69.1471 77.2637C68.6804 80.899 67.2648 82.9225 67.6695 85.3489C68.0742 87.7753 70.2527 94.476 70.2527 94.476" stroke="#263238" stroke-width="0.3" stroke-linecap="round" stroke-linejoin="round"/>
<path d="M71.377 58.6358L73.0319 57.3666" stroke="#263238" stroke-width="0.3" stroke-linecap="round" stroke-linejoin="round"/>
<path d="M71.454 57.1754L70.7617 55.9442" stroke="#263238" stroke-width="0.3" stroke-linecap="round" stroke-linejoin="round"/>
<path d="M68.5693 67.0206C68.5693 67.0206 69.947 65.9874 71.3764 64.9438" stroke="#263238" stroke-width="0.3" stroke-linecap="round" stroke-linejoin="round"/>
<path d="M69.2626 64.8629C69.2626 64.8629 68.1088 62.6018 66.8018 61.1018" stroke="#263238" stroke-width="0.3" stroke-linecap="round" stroke-linejoin="round"/>
<path d="M69.2617 76.3665C70.052 74.9097 71.0497 73.5755 72.2237 72.4056" stroke="#263238" stroke-width="0.3" stroke-linecap="round" stroke-linejoin="round"/>
<path d="M68.9972 77.9043C68.5768 76.9156 68.0751 75.9634 67.4973 75.0577C66.6896 73.866 66.5742 73.7127 66.5742 73.7127" stroke="#263238" stroke-width="0.3" stroke-linecap="round" stroke-linejoin="round"/>
<path d="M67.6689 85.3558C68.0194 84.4847 68.4362 83.6418 68.9157 82.8346C69.3945 82.0817 69.9348 81.3698 70.5311 80.7061" stroke="#263238" stroke-width="0.3" stroke-linecap="round" stroke-linejoin="round"/>
<path d="M69.1928 91.0232C69.1928 91.0232 69.0309 89.711 69.6078 88.5968C70.1847 87.4826 70.8391 86.0136 71.1078 85.4419" stroke="#263238" stroke-width="0.3" stroke-linecap="round" stroke-linejoin="round"/>
<path d="M86.4887 65.0406C86.4887 65.0406 86.4887 63.9453 84.9543 62.4109C83.4199 60.8765 82.4331 60 82.4331 60C82.4331 60 81.6651 62.5211 83.091 64.0555C84.5169 65.5899 86.4887 67.0158 86.4887 67.0158V65.0406Z" fill="#34A853"/>
<path d="M84.2621 71.8859C84.2621 71.8859 84.2621 70.7907 82.7277 69.2563C81.1933 67.7219 80.2066 66.8453 80.2066 66.8453C80.2066 66.8453 79.4385 69.3665 80.8644 70.9026C82.2903 72.4387 84.2621 73.8629 84.2621 73.8629V71.8859Z" fill="#34A853"/>
<path d="M86.3922 66.9073C86.3922 66.9073 86.5076 65.8172 88.197 64.4534C89.8864 63.0895 90.9524 62.3231 90.9524 62.3231C90.9524 62.3231 91.45 64.9063 89.8709 66.2839C88.2917 67.6616 86.1787 68.8671 86.1787 68.8671L86.3922 66.9073Z" fill="#34A853"/>
<path d="M83.7024 74.9926C83.7024 74.9926 83.9314 73.9214 85.7534 72.7418C87.5754 71.5621 88.724 70.9112 88.724 70.9112C88.724 70.9112 88.9461 73.5374 87.2309 74.7394C85.5157 75.9414 83.2891 76.9213 83.2891 76.9213L83.7024 74.9926Z" fill="#34A853"/>
<path d="M84.207 83.8063C84.207 83.8063 84.207 82.711 85.7431 81.1766C87.2793 79.6422 88.2626 78.7657 88.2626 78.7657C88.2626 78.7657 89.0306 81.2851 87.6133 82.8178C86.1961 84.3504 84.2139 85.7781 84.2139 85.7781L84.207 83.8063Z" fill="#34A853"/>
<path d="M84.1828 85.9588C84.1828 85.9588 84.3377 84.8739 83.0376 83.1363C81.7374 81.3987 80.8832 80.3913 80.8832 80.3913C80.8832 80.3913 79.7656 82.7781 80.959 84.4985C82.1524 86.2189 83.9021 87.9117 83.9021 87.9117L84.1828 85.9588Z" fill="#34A853"/>
<path d="M82.6689 92.334C82.6689 92.334 82.6689 91.2388 84.2033 89.7044C85.7377 88.17 86.7245 87.2935 86.7245 87.2935C86.7245 87.2935 87.4908 89.8146 86.0666 91.349C84.6425 92.8834 82.6689 94.3093 82.6689 94.3093V92.334Z" fill="#34A853"/>
<path d="M83.6944 98.1151C83.6944 98.1151 83.4172 97.0543 84.5124 95.1875C85.6077 93.3208 86.3413 92.2152 86.3413 92.2152C86.3413 92.2152 87.7189 94.4539 86.7322 96.3052C85.7454 98.1564 84.1938 100.028 84.1938 100.028L83.6944 98.1151Z" fill="#34A853"/>
<path d="M86.6286 64.7599C86.5505 65.901 86.4102 67.0369 86.2084 68.1627C85.6005 71.297 84.0851 73.329 83.4789 76.1498C82.8727 78.9706 84.6138 82.6283 84.1471 86.2637C83.6804 89.899 82.2648 91.9225 82.6695 94.3489C83.0742 96.7753 85.2527 103.476 85.2527 103.476" stroke="#263238" stroke-linecap="round" stroke-linejoin="round"/>
<path d="M86.377 67.6358L88.0319 66.3666" stroke="#263238" stroke-linecap="round" stroke-linejoin="round"/>
<path d="M86.454 66.1754L85.7617 64.9442" stroke="#263238" stroke-linecap="round" stroke-linejoin="round"/>
<path d="M83.5693 76.0206C83.5693 76.0206 84.947 74.9874 86.3764 73.9438" stroke="#263238" stroke-linecap="round" stroke-linejoin="round"/>
<path d="M84.2626 73.8629C84.2626 73.8629 83.1088 71.6018 81.8018 70.1018" stroke="#263238" stroke-linecap="round" stroke-linejoin="round"/>
<path d="M84.2617 85.3665C85.052 83.9097 86.0497 82.5755 87.2237 81.4056" stroke="#263238" stroke-linecap="round" stroke-linejoin="round"/>
<path d="M83.9972 86.9043C83.5768 85.9156 83.0751 84.9634 82.4973 84.0577C81.6896 82.866 81.5742 82.7127 81.5742 82.7127" stroke="#263238" stroke-linecap="round" stroke-linejoin="round"/>
<path d="M82.6689 94.3558C83.0194 93.4847 83.4362 92.6418 83.9157 91.8346C84.3945 91.0817 84.9348 90.3698 85.5311 89.7061" stroke="#263238" stroke-linecap="round" stroke-linejoin="round"/>
<path d="M84.1928 100.023C84.1928 100.023 84.0309 98.711 84.6078 97.5968C85.1847 96.4826 85.8391 95.0136 86.1078 94.4419" stroke="#263238" stroke-linecap="round" stroke-linejoin="round"/>
<path d="M126.489 65.0406C126.489 65.0406 126.489 63.9453 124.954 62.4109C123.42 60.8765 122.433 60 122.433 60C122.433 60 121.665 62.5211 123.091 64.0555C124.517 65.5899 126.489 67.0158 126.489 67.0158V65.0406Z" fill="#34A853"/>
<path d="M124.262 71.8859C124.262 71.8859 124.262 70.7907 122.728 69.2563C121.193 67.7219 120.207 66.8453 120.207 66.8453C120.207 66.8453 119.439 69.3665 120.864 70.9026C122.29 72.4387 124.262 73.8629 124.262 73.8629V71.8859Z" fill="#34A853"/>
<path d="M126.392 66.9073C126.392 66.9073 126.508 65.8172 128.197 64.4534C129.886 63.0895 130.952 62.3231 130.952 62.3231C130.952 62.3231 131.45 64.9063 129.871 66.2839C128.292 67.6616 126.179 68.8671 126.179 68.8671L126.392 66.9073Z" fill="#34A853"/>
<path d="M123.702 74.9926C123.702 74.9926 123.931 73.9214 125.753 72.7418C127.575 71.5621 128.724 70.9112 128.724 70.9112C128.724 70.9112 128.946 73.5374 127.231 74.7394C125.516 75.9414 123.289 76.9213 123.289 76.9213L123.702 74.9926Z" fill="#34A853"/>
<path d="M124.207 83.8063C124.207 83.8063 124.207 82.711 125.743 81.1766C127.279 79.6422 128.263 78.7657 128.263 78.7657C128.263 78.7657 129.031 81.2851 127.613 82.8178C126.196 84.3504 124.214 85.7781 124.214 85.7781L124.207 83.8063Z" fill="#34A853"/>
<path d="M124.183 85.9588C124.183 85.9588 124.338 84.8739 123.038 83.1363C121.737 81.3987 120.883 80.3913 120.883 80.3913C120.883 80.3913 119.766 82.7781 120.959 84.4985C122.152 86.2189 123.902 87.9117 123.902 87.9117L124.183 85.9588Z" fill="#34A853"/>
<path d="M122.669 92.334C122.669 92.334 122.669 91.2388 124.203 89.7044C125.738 88.17 126.724 87.2935 126.724 87.2935C126.724 87.2935 127.491 89.8146 126.067 91.349C124.642 92.8834 122.669 94.3093 122.669 94.3093V92.334Z" fill="#34A853"/>
<path d="M123.694 98.1151C123.694 98.1151 123.417 97.0543 124.512 95.1875C125.608 93.3208 126.341 92.2152 126.341 92.2152C126.341 92.2152 127.719 94.4539 126.732 96.3052C125.745 98.1564 124.194 100.028 124.194 100.028L123.694 98.1151Z" fill="#34A853"/>
<path d="M126.629 64.7599C126.551 65.901 126.41 67.0369 126.208 68.1627C125.601 71.297 124.085 73.329 123.479 76.1498C122.873 78.9706 124.614 82.6283 124.147 86.2637C123.68 89.899 122.265 91.9225 122.67 94.3489C123.074 96.7753 125.253 103.476 125.253 103.476" stroke="#263238" stroke-linecap="round" stroke-linejoin="round"/>
<path d="M126.377 67.6358L128.032 66.3666" stroke="#263238" stroke-linecap="round" stroke-linejoin="round"/>
<path d="M126.454 66.1754L125.762 64.9442" stroke="#263238" stroke-linecap="round" stroke-linejoin="round"/>
<path d="M123.569 76.0206C123.569 76.0206 124.947 74.9874 126.376 73.9438" stroke="#263238" stroke-linecap="round" stroke-linejoin="round"/>
<path d="M124.263 73.8629C124.263 73.8629 123.109 71.6018 121.802 70.1018" stroke="#263238" stroke-linecap="round" stroke-linejoin="round"/>
<path d="M124.262 85.3665C125.052 83.9097 126.05 82.5755 127.224 81.4056" stroke="#263238" stroke-linecap="round" stroke-linejoin="round"/>
<path d="M123.997 86.9043C123.577 85.9156 123.075 84.9634 122.497 84.0577C121.69 82.866 121.574 82.7127 121.574 82.7127" stroke="#263238" stroke-linecap="round" stroke-linejoin="round"/>
<path d="M122.669 94.3558C123.019 93.4847 123.436 92.6418 123.916 91.8346C124.394 91.0817 124.935 90.3698 125.531 89.7061" stroke="#263238" stroke-linecap="round" stroke-linejoin="round"/>
<path d="M124.193 100.023C124.193 100.023 124.031 98.711 124.608 97.5968C125.185 96.4826 125.839 95.0136 126.108 94.4419" stroke="#263238" stroke-linecap="round" stroke-linejoin="round"/>
<path d="M53.4887 58.0406C53.4887 58.0406 53.4887 56.9453 51.9543 55.4109C50.4199 53.8765 49.4331 53 49.4331 53C49.4331 53 48.6651 55.5211 50.091 57.0555C51.5169 58.5899 53.4887 60.0158 53.4887 60.0158V58.0406Z" fill="#34A853"/>
<path d="M51.2621 64.8859C51.2621 64.8859 51.2621 63.7907 49.7277 62.2563C48.1933 60.7219 47.2066 59.8453 47.2066 59.8453C47.2066 59.8453 46.4385 62.3665 47.8644 63.9026C49.2903 65.4387 51.2621 66.8629 51.2621 66.8629V64.8859Z" fill="#34A853"/>
<path d="M53.3922 59.9073C53.3922 59.9073 53.5076 58.8172 55.197 57.4534C56.8864 56.0895 57.9524 55.3231 57.9524 55.3231C57.9524 55.3231 58.45 57.9063 56.8709 59.2839C55.2917 60.6616 53.1787 61.8671 53.1787 61.8671L53.3922 59.9073Z" fill="#34A853"/>
<path d="M50.7024 67.9926C50.7024 67.9926 50.9314 66.9214 52.7534 65.7418C54.5754 64.5621 55.724 63.9112 55.724 63.9112C55.724 63.9112 55.9461 66.5374 54.2309 67.7394C52.5157 68.9414 50.2891 69.9213 50.2891 69.9213L50.7024 67.9926Z" fill="#34A853"/>
<path d="M51.207 76.8063C51.207 76.8063 51.207 75.711 52.7431 74.1766C54.2793 72.6422 55.2626 71.7657 55.2626 71.7657C55.2626 71.7657 56.0306 74.2851 54.6133 75.8178C53.1961 77.3504 51.2139 78.7781 51.2139 78.7781L51.207 76.8063Z" fill="#34A853"/>
<path d="M51.1828 78.9588C51.1828 78.9588 51.3377 77.8739 50.0376 76.1363C48.7374 74.3987 47.8832 73.3913 47.8832 73.3913C47.8832 73.3913 46.7656 75.7781 47.959 77.4985C49.1524 79.2189 50.9021 80.9117 50.9021 80.9117L51.1828 78.9588Z" fill="#34A853"/>
<path d="M49.6689 85.334C49.6689 85.334 49.6689 84.2388 51.2033 82.7044C52.7377 81.17 53.7245 80.2935 53.7245 80.2935C53.7245 80.2935 54.4908 82.8146 53.0666 84.349C51.6425 85.8834 49.6689 87.3093 49.6689 87.3093V85.334Z" fill="#34A853"/>
<path d="M50.6944 91.1151C50.6944 91.1151 50.4172 90.0543 51.5124 88.1875C52.6077 86.3208 53.3413 85.2152 53.3413 85.2152C53.3413 85.2152 54.7189 87.4539 53.7322 89.3052C52.7454 91.1564 51.1938 93.0284 51.1938 93.0284L50.6944 91.1151Z" fill="#34A853"/>
<path d="M53.6286 57.7599C53.5505 58.901 53.4102 60.0369 53.2084 61.1627C52.6005 64.297 51.0851 66.329 50.4789 69.1498C49.8727 71.9706 51.6138 75.6283 51.1471 79.2637C50.6804 82.899 49.2648 84.9225 49.6695 87.3489C50.0742 89.7753 52.2527 96.476 52.2527 96.476" stroke="#263238" stroke-linecap="round" stroke-linejoin="round"/>
<path d="M53.377 60.6358L55.0319 59.3666" stroke="#263238" stroke-linecap="round" stroke-linejoin="round"/>
<path d="M53.454 59.1754L52.7617 57.9442" stroke="#263238" stroke-linecap="round" stroke-linejoin="round"/>
<path d="M50.5693 69.0206C50.5693 69.0206 51.947 67.9874 53.3764 66.9438" stroke="#263238" stroke-linecap="round" stroke-linejoin="round"/>
<path d="M51.2626 66.8629C51.2626 66.8629 50.1088 64.6018 48.8018 63.1018" stroke="#263238" stroke-linecap="round" stroke-linejoin="round"/>
<path d="M51.2617 78.3665C52.052 76.9097 53.0497 75.5755 54.2237 74.4056" stroke="#263238" stroke-linecap="round" stroke-linejoin="round"/>
<path d="M50.9972 79.9043C50.5768 78.9156 50.0751 77.9634 49.4973 77.0577C48.6896 75.866 48.5742 75.7127 48.5742 75.7127" stroke="#263238" stroke-linecap="round" stroke-linejoin="round"/>
<path d="M49.6689 87.3558C50.0194 86.4847 50.4362 85.6418 50.9157 84.8346C51.3945 84.0817 51.9348 83.3698 52.5311 82.7061" stroke="#263238" stroke-linecap="round" stroke-linejoin="round"/>
<path d="M51.1928 93.0232C51.1928 93.0232 51.0309 91.711 51.6078 90.5968C52.1847 89.4826 52.8391 88.0136 53.1078 87.4419" stroke="#263238" stroke-linecap="round" stroke-linejoin="round"/>
<path d="M74.8915 49.5768C74.8915 49.5768 74.8915 48.5823 73.4982 47.1891C72.105 45.7959 71.209 45 71.209 45C71.209 45 70.5117 47.2892 71.8064 48.6824C73.1011 50.0756 74.8915 51.3703 74.8915 51.3703V49.5768Z" fill="#34A853"/>
<path d="M72.87 55.7923C72.87 55.7923 72.87 54.7978 71.4768 53.4046C70.0835 52.0114 69.1876 51.2155 69.1876 51.2155C69.1876 51.2155 68.4902 53.5047 69.7849 54.8995C71.0796 56.2943 72.87 57.5874 72.87 57.5874V55.7923Z" fill="#34A853"/>
<path d="M74.8042 51.2718C74.8042 51.2718 74.909 50.282 76.443 49.0436C77.9769 47.8052 78.9448 47.1094 78.9448 47.1094C78.9448 47.1094 79.3967 49.4549 77.9628 50.7058C76.529 51.9567 74.6104 53.0513 74.6104 53.0513L74.8042 51.2718Z" fill="#34A853"/>
<path d="M72.3616 58.6131C72.3616 58.6131 72.5696 57.6406 74.2239 56.5695C75.8783 55.4983 76.9212 54.9073 76.9212 54.9073C76.9212 54.9073 77.1229 57.2919 75.5655 58.3833C74.0081 59.4747 71.9863 60.3644 71.9863 60.3644L72.3616 58.6131Z" fill="#34A853"/>
<path d="M72.8203 66.6159C72.8203 66.6159 72.8203 65.6215 74.2151 64.2282C75.6099 62.835 76.5027 62.0391 76.5027 62.0391C76.5027 62.0391 77.2001 64.3267 75.9132 65.7184C74.6263 67.1101 72.8266 68.4063 72.8266 68.4063L72.8203 66.6159Z" fill="#34A853"/>
<path d="M72.7984 68.5705C72.7984 68.5705 72.9391 67.5854 71.7585 66.0077C70.578 64.4299 69.8024 63.5152 69.8024 63.5152C69.8024 63.5152 68.7876 65.6824 69.8712 67.2445C70.9548 68.8066 72.5435 70.3437 72.5435 70.3437L72.7984 68.5705Z" fill="#34A853"/>
<path d="M71.4238 74.3592C71.4238 74.3592 71.4238 73.3647 72.817 71.9715C74.2103 70.5782 75.1062 69.7823 75.1062 69.7823C75.1062 69.7823 75.8021 72.0715 74.5089 73.4648C73.2158 74.858 71.4238 76.1527 71.4238 76.1527V74.3592Z" fill="#34A853"/>
<path d="M72.3536 79.6084C72.3536 79.6084 72.1019 78.6451 73.0964 76.9501C74.0909 75.2551 74.757 74.2513 74.757 74.2513C74.757 74.2513 76.0079 76.284 75.1119 77.965C74.2159 79.6459 72.8071 81.3456 72.8071 81.3456L72.3536 79.6084Z" fill="#34A853"/>
<path d="M75.0185 49.322C74.9476 50.3581 74.8202 51.3895 74.637 52.4117C74.085 55.2576 72.709 57.1027 72.1586 59.664C71.6082 62.2252 73.189 65.5464 72.7653 68.8473C72.3415 72.1482 71.0562 73.9855 71.4237 76.1887C71.7911 78.3918 73.7691 84.476 73.7691 84.476" stroke="#263238" stroke-linecap="round" stroke-linejoin="round"/>
<path d="M74.79 51.9332L76.2927 50.7808" stroke="#263238" stroke-linecap="round" stroke-linejoin="round"/>
<path d="M74.86 50.6073L74.2314 49.4893" stroke="#263238" stroke-linecap="round" stroke-linejoin="round"/>
<path d="M72.2412 59.5467C72.2412 59.5467 73.4921 58.6085 74.79 57.6609" stroke="#263238" stroke-linecap="round" stroke-linejoin="round"/>
<path d="M72.8702 57.5874C72.8702 57.5874 71.8226 55.5343 70.6357 54.1724" stroke="#263238" stroke-linecap="round" stroke-linejoin="round"/>
<path d="M72.8701 68.0326C73.5877 66.7099 74.4936 65.4984 75.5596 64.4362" stroke="#263238" stroke-linecap="round" stroke-linejoin="round"/>
<path d="M72.6297 69.429C72.2481 68.5312 71.7925 67.6667 71.2678 66.8443C70.5345 65.7622 70.4297 65.623 70.4297 65.623" stroke="#263238" stroke-linecap="round" stroke-linejoin="round"/>
<path d="M71.4238 76.1949C71.742 75.404 72.1205 74.6386 72.5559 73.9057C72.9906 73.2221 73.4812 72.5756 74.0226 71.973" stroke="#263238" stroke-linecap="round" stroke-linejoin="round"/>
<path d="M72.8071 81.3409C72.8071 81.3409 72.6601 80.1494 73.1839 79.1377C73.7077 78.126 74.3019 76.7922 74.5459 76.2731" stroke="#263238" stroke-linecap="round" stroke-linejoin="round"/>
<path d="M114.891 49.5768C114.891 49.5768 114.891 48.5823 113.498 47.1891C112.105 45.7959 111.209 45 111.209 45C111.209 45 110.512 47.2892 111.806 48.6824C113.101 50.0756 114.891 51.3703 114.891 51.3703V49.5768Z" fill="#34A853"/>
<path d="M112.87 55.7923C112.87 55.7923 112.87 54.7978 111.477 53.4046C110.084 52.0114 109.188 51.2155 109.188 51.2155C109.188 51.2155 108.49 53.5047 109.785 54.8995C111.08 56.2943 112.87 57.5874 112.87 57.5874V55.7923Z" fill="#34A853"/>
<path d="M114.804 51.2718C114.804 51.2718 114.909 50.282 116.443 49.0436C117.977 47.8052 118.945 47.1094 118.945 47.1094C118.945 47.1094 119.397 49.4549 117.963 50.7058C116.529 51.9567 114.61 53.0513 114.61 53.0513L114.804 51.2718Z" fill="#34A853"/>
<path d="M112.362 58.6131C112.362 58.6131 112.57 57.6406 114.224 56.5695C115.878 55.4983 116.921 54.9073 116.921 54.9073C116.921 54.9073 117.123 57.2919 115.566 58.3833C114.008 59.4747 111.986 60.3644 111.986 60.3644L112.362 58.6131Z" fill="#34A853"/>
<path d="M112.82 66.6159C112.82 66.6159 112.82 65.6215 114.215 64.2282C115.61 62.835 116.503 62.0391 116.503 62.0391C116.503 62.0391 117.2 64.3267 115.913 65.7184C114.626 67.1101 112.827 68.4063 112.827 68.4063L112.82 66.6159Z" fill="#34A853"/>
<path d="M112.798 68.5705C112.798 68.5705 112.939 67.5854 111.759 66.0077C110.578 64.4299 109.802 63.5152 109.802 63.5152C109.802 63.5152 108.788 65.6824 109.871 67.2445C110.955 68.8066 112.543 70.3437 112.543 70.3437L112.798 68.5705Z" fill="#34A853"/>
<path d="M111.424 74.3592C111.424 74.3592 111.424 73.3647 112.817 71.9715C114.21 70.5782 115.106 69.7823 115.106 69.7823C115.106 69.7823 115.802 72.0715 114.509 73.4648C113.216 74.858 111.424 76.1527 111.424 76.1527V74.3592Z" fill="#34A853"/>
<path d="M112.354 79.6084C112.354 79.6084 112.102 78.6451 113.096 76.9501C114.091 75.2551 114.757 74.2513 114.757 74.2513C114.757 74.2513 116.008 76.284 115.112 77.965C114.216 79.6459 112.807 81.3456 112.807 81.3456L112.354 79.6084Z" fill="#34A853"/>
<path d="M115.018 49.322C114.948 50.3581 114.82 51.3895 114.637 52.4117C114.085 55.2576 112.709 57.1027 112.159 59.664C111.608 62.2252 113.189 65.5464 112.765 68.8473C112.342 72.1482 111.056 73.9855 111.424 76.1887C111.791 78.3918 113.769 84.476 113.769 84.476" stroke="#263238" stroke-linecap="round" stroke-linejoin="round"/>
<path d="M114.79 51.9332L116.293 50.7808" stroke="#263238" stroke-linecap="round" stroke-linejoin="round"/>
<path d="M114.86 50.6073L114.231 49.4893" stroke="#263238" stroke-linecap="round" stroke-linejoin="round"/>
<path d="M112.241 59.5467C112.241 59.5467 113.492 58.6085 114.79 57.6609" stroke="#263238" stroke-linecap="round" stroke-linejoin="round"/>
<path d="M112.87 57.5874C112.87 57.5874 111.823 55.5343 110.636 54.1724" stroke="#263238" stroke-linecap="round" stroke-linejoin="round"/>
<path d="M112.87 68.0326C113.588 66.7099 114.494 65.4984 115.56 64.4362" stroke="#263238" stroke-linecap="round" stroke-linejoin="round"/>
<path d="M112.63 69.429C112.248 68.5312 111.793 67.6667 111.268 66.8443C110.534 65.7622 110.43 65.623 110.43 65.623" stroke="#263238" stroke-linecap="round" stroke-linejoin="round"/>
<path d="M111.424 76.1949C111.742 75.404 112.12 74.6386 112.556 73.9057C112.991 73.2221 113.481 72.5756 114.023 71.973" stroke="#263238" stroke-linecap="round" stroke-linejoin="round"/>
<path d="M112.807 81.3409C112.807 81.3409 112.66 80.1494 113.184 79.1377C113.708 78.126 114.302 76.7922 114.546 76.2731" stroke="#263238" stroke-linecap="round" stroke-linejoin="round"/>
<path d="M41.8915 42.5768C41.8915 42.5768 41.8915 41.5823 40.4982 40.1891C39.105 38.7959 38.209 38 38.209 38C38.209 38 37.5117 40.2892 38.8064 41.6824C40.1011 43.0756 41.8915 44.3703 41.8915 44.3703V42.5768Z" fill="#34A853"/>
<path d="M39.87 48.7923C39.87 48.7923 39.87 47.7978 38.4768 46.4046C37.0835 45.0114 36.1876 44.2155 36.1876 44.2155C36.1876 44.2155 35.4902 46.5047 36.7849 47.8995C38.0796 49.2943 39.87 50.5874 39.87 50.5874V48.7923Z" fill="#34A853"/>
<path d="M41.8042 44.2718C41.8042 44.2718 41.909 43.282 43.443 42.0436C44.9769 40.8052 45.9448 40.1094 45.9448 40.1094C45.9448 40.1094 46.3967 42.4549 44.9628 43.7058C43.529 44.9567 41.6104 46.0513 41.6104 46.0513L41.8042 44.2718Z" fill="#34A853"/>
<path d="M39.3616 51.6131C39.3616 51.6131 39.5696 50.6406 41.2239 49.5695C42.8783 48.4983 43.9212 47.9073 43.9212 47.9073C43.9212 47.9073 44.1229 50.2919 42.5655 51.3833C41.0081 52.4747 38.9863 53.3644 38.9863 53.3644L39.3616 51.6131Z" fill="#34A853"/>
<path d="M39.8203 59.6159C39.8203 59.6159 39.8203 58.6215 41.2151 57.2282C42.6099 55.835 43.5027 55.0391 43.5027 55.0391C43.5027 55.0391 44.2001 57.3267 42.9132 58.7184C41.6263 60.1101 39.8266 61.4063 39.8266 61.4063L39.8203 59.6159Z" fill="#34A853"/>
<path d="M39.7984 61.5705C39.7984 61.5705 39.9391 60.5854 38.7585 59.0077C37.578 57.4299 36.8024 56.5152 36.8024 56.5152C36.8024 56.5152 35.7876 58.6824 36.8712 60.2445C37.9548 61.8066 39.5435 63.3437 39.5435 63.3437L39.7984 61.5705Z" fill="#34A853"/>
<path d="M38.4238 67.3592C38.4238 67.3592 38.4238 66.3647 39.817 64.9715C41.2103 63.5782 42.1062 62.7823 42.1062 62.7823C42.1062 62.7823 42.8021 65.0715 41.5089 66.4648C40.2158 67.858 38.4238 69.1527 38.4238 69.1527V67.3592Z" fill="#34A853"/>
<path d="M39.3536 72.6084C39.3536 72.6084 39.1019 71.6451 40.0964 69.9501C41.0909 68.2551 41.757 67.2513 41.757 67.2513C41.757 67.2513 43.0079 69.284 42.1119 70.965C41.2159 72.6459 39.8071 74.3456 39.8071 74.3456L39.3536 72.6084Z" fill="#34A853"/>
<path d="M42.0185 42.3219C41.9476 43.358 41.8202 44.3895 41.637 45.4117C41.085 48.2576 39.709 50.1027 39.1586 52.6639C38.6082 55.2252 40.189 58.5464 39.7653 61.8473C39.3415 65.1481 38.0562 66.9854 38.4237 69.1886C38.7911 71.3918 40.7691 77.476 40.7691 77.476" stroke="#263238" stroke-linecap="round" stroke-linejoin="round"/>
<path d="M41.79 44.9332L43.2927 43.7808" stroke="#263238" stroke-linecap="round" stroke-linejoin="round"/>
<path d="M41.86 43.6073L41.2314 42.4893" stroke="#263238" stroke-linecap="round" stroke-linejoin="round"/>
<path d="M39.2412 52.5467C39.2412 52.5467 40.4921 51.6085 41.79 50.6609" stroke="#263238" stroke-linecap="round" stroke-linejoin="round"/>
<path d="M39.8702 50.5874C39.8702 50.5874 38.8226 48.5343 37.6357 47.1724" stroke="#263238" stroke-linecap="round" stroke-linejoin="round"/>
<path d="M39.8701 61.0326C40.5877 59.7099 41.4936 58.4984 42.5596 57.4362" stroke="#263238" stroke-linecap="round" stroke-linejoin="round"/>
<path d="M39.6297 62.429C39.2481 61.5312 38.7925 60.6667 38.2678 59.8443C37.5345 58.7622 37.4297 58.623 37.4297 58.623" stroke="#263238" stroke-linecap="round" stroke-linejoin="round"/>
<path d="M38.4238 69.1949C38.742 68.404 39.1205 67.6386 39.5559 66.9057C39.9906 66.2221 40.4812 65.5756 41.0226 64.973" stroke="#263238" stroke-linecap="round" stroke-linejoin="round"/>
<path d="M39.8071 74.3409C39.8071 74.3409 39.6601 73.1494 40.1839 72.1377C40.7077 71.126 41.3019 69.7922 41.5459 69.2731" stroke="#263238" stroke-linecap="round" stroke-linejoin="round"/>
<path d="M81.5 93C8.07278 119.985 -57.7921 29.0533 -119.276 56.4811C-155.99 65.3287 -230.125 83.9973 -232.956 87.8903C-235.787 91.7833 -238.559 177.989 -239.591 220.605L305.805 310.409C342.961 264.549 406.746 159.733 364.636 107.355C311.998 41.8824 154.927 66.0146 81.5 93Z" fill="#5DCCFC"/>
<path d="M160.557 88.508C98.8533 111.19 44.9551 39.0528 -6.71279 62.1071C-37.5649 69.544 -99.8637 85.2358 -102.243 88.508C-104.622 91.7802 -106.951 164.24 -107.818 200.061L350.502 275.545C381.726 236.998 435.327 148.895 399.94 104.869C355.706 49.8362 222.262 65.8255 160.557 88.508Z" fill="#C29217"/>
</g>
<rect x="4" y="4" width="164" height="164" rx="82" stroke="#ADE5FC" stroke-width="8"/>
<defs>
<linearGradient id="paint0_linear_562_1072" x1="102.358" y1="58" x2="102.358" y2="65.0158" gradientUnits="userSpaceOnUse">
<stop stop-color="#0DFF4D"/>
<stop offset="1" stop-color="#FFE605" stop-opacity="0.742865"/>
</linearGradient>
<linearGradient id="paint1_linear_562_1072" x1="100.131" y1="64.8453" x2="100.131" y2="71.8629" gradientUnits="userSpaceOnUse">
<stop stop-color="#0DFF4D"/>
<stop offset="1" stop-color="#FFE605" stop-opacity="0.742865"/>
</linearGradient>
<linearGradient id="paint2_linear_562_1072" x1="106.603" y1="60.3231" x2="106.603" y2="66.8671" gradientUnits="userSpaceOnUse">
<stop stop-color="#0DFF4D"/>
<stop offset="1" stop-color="#FFE605" stop-opacity="0.742865"/>
</linearGradient>
<linearGradient id="paint3_linear_562_1072" x1="104.011" y1="68.9112" x2="104.011" y2="74.9213" gradientUnits="userSpaceOnUse">
<stop stop-color="#0DFF4D"/>
<stop offset="1" stop-color="#FFE605" stop-opacity="0.742865"/>
</linearGradient>
<linearGradient id="paint4_linear_562_1072" x1="104.339" y1="76.7657" x2="104.339" y2="83.7781" gradientUnits="userSpaceOnUse">
<stop stop-color="#0DFF4D"/>
<stop offset="1" stop-color="#FFE605" stop-opacity="0.742865"/>
</linearGradient>
<linearGradient id="paint5_linear_562_1072" x1="100.298" y1="78.3913" x2="100.298" y2="85.9117" gradientUnits="userSpaceOnUse">
<stop stop-color="#0DFF4D"/>
<stop offset="1" stop-color="#FFE605" stop-opacity="0.742865"/>
</linearGradient>
<linearGradient id="paint6_linear_562_1072" x1="102.8" y1="85.2935" x2="102.8" y2="92.3093" gradientUnits="userSpaceOnUse">
<stop stop-color="#0DFF4D"/>
<stop offset="1" stop-color="#FFE605" stop-opacity="0.742865"/>
</linearGradient>
<linearGradient id="paint7_linear_562_1072" x1="103.376" y1="90.2152" x2="103.376" y2="98.0284" gradientUnits="userSpaceOnUse">
<stop stop-color="#0DFF4D"/>
<stop offset="1" stop-color="#FFE605" stop-opacity="0.742865"/>
</linearGradient>
<linearGradient id="paint8_linear_562_1072" x1="142.358" y1="58" x2="142.358" y2="65.0158" gradientUnits="userSpaceOnUse">
<stop stop-color="#0DFF4D"/>
<stop offset="1" stop-color="#FFE605" stop-opacity="0.742865"/>
</linearGradient>
<linearGradient id="paint9_linear_562_1072" x1="140.131" y1="64.8453" x2="140.131" y2="71.8629" gradientUnits="userSpaceOnUse">
<stop stop-color="#0DFF4D"/>
<stop offset="1" stop-color="#FFE605" stop-opacity="0.742865"/>
</linearGradient>
<linearGradient id="paint10_linear_562_1072" x1="146.603" y1="60.3231" x2="146.603" y2="66.8671" gradientUnits="userSpaceOnUse">
<stop stop-color="#0DFF4D"/>
<stop offset="1" stop-color="#FFE605" stop-opacity="0.742865"/>
</linearGradient>
<linearGradient id="paint11_linear_562_1072" x1="144.011" y1="68.9112" x2="144.011" y2="74.9213" gradientUnits="userSpaceOnUse">
<stop stop-color="#0DFF4D"/>
<stop offset="1" stop-color="#FFE605" stop-opacity="0.742865"/>
</linearGradient>
<linearGradient id="paint12_linear_562_1072" x1="144.339" y1="76.7657" x2="144.339" y2="83.7781" gradientUnits="userSpaceOnUse">
<stop stop-color="#0DFF4D"/>
<stop offset="1" stop-color="#FFE605" stop-opacity="0.742865"/>
</linearGradient>
<linearGradient id="paint13_linear_562_1072" x1="140.298" y1="78.3913" x2="140.298" y2="85.9117" gradientUnits="userSpaceOnUse">
<stop stop-color="#0DFF4D"/>
<stop offset="1" stop-color="#FFE605" stop-opacity="0.742865"/>
</linearGradient>
<linearGradient id="paint14_linear_562_1072" x1="142.8" y1="85.2935" x2="142.8" y2="92.3093" gradientUnits="userSpaceOnUse">
<stop stop-color="#0DFF4D"/>
<stop offset="1" stop-color="#FFE605" stop-opacity="0.742865"/>
</linearGradient>
<linearGradient id="paint15_linear_562_1072" x1="143.376" y1="90.2152" x2="143.376" y2="98.0284" gradientUnits="userSpaceOnUse">
<stop stop-color="#0DFF4D"/>
<stop offset="1" stop-color="#FFE605" stop-opacity="0.742865"/>
</linearGradient>
<linearGradient id="paint16_linear_562_1072" x1="69.3576" y1="51" x2="69.3576" y2="58.0158" gradientUnits="userSpaceOnUse">
<stop stop-color="#0DFF4D"/>
<stop offset="1" stop-color="#FFE605" stop-opacity="0.742865"/>
</linearGradient>
<linearGradient id="paint17_linear_562_1072" x1="67.1311" y1="57.8453" x2="67.1311" y2="64.8629" gradientUnits="userSpaceOnUse">
<stop stop-color="#0DFF4D"/>
<stop offset="1" stop-color="#FFE605" stop-opacity="0.742865"/>
</linearGradient>
<linearGradient id="paint18_linear_562_1072" x1="73.6027" y1="53.3231" x2="73.6027" y2="59.8671" gradientUnits="userSpaceOnUse">
<stop stop-color="#0DFF4D"/>
<stop offset="1" stop-color="#FFE605" stop-opacity="0.742865"/>
</linearGradient>
<linearGradient id="paint19_linear_562_1072" x1="71.0112" y1="61.9112" x2="71.0112" y2="67.9213" gradientUnits="userSpaceOnUse">
<stop stop-color="#0DFF4D"/>
<stop offset="1" stop-color="#FFE605" stop-opacity="0.742865"/>
</linearGradient>
<linearGradient id="paint20_linear_562_1072" x1="71.3387" y1="69.7657" x2="71.3387" y2="76.7781" gradientUnits="userSpaceOnUse">
<stop stop-color="#0DFF4D"/>
<stop offset="1" stop-color="#FFE605" stop-opacity="0.742865"/>
</linearGradient>
<linearGradient id="paint21_linear_562_1072" x1="67.2983" y1="71.3913" x2="67.2983" y2="78.9117" gradientUnits="userSpaceOnUse">
<stop stop-color="#0DFF4D"/>
<stop offset="1" stop-color="#FFE605" stop-opacity="0.742865"/>
</linearGradient>
<linearGradient id="paint22_linear_562_1072" x1="69.7997" y1="78.2935" x2="69.7997" y2="85.3093" gradientUnits="userSpaceOnUse">
<stop stop-color="#0DFF4D"/>
<stop offset="1" stop-color="#FFE605" stop-opacity="0.742865"/>
</linearGradient>
<linearGradient id="paint23_linear_562_1072" x1="70.3756" y1="83.2152" x2="70.3756" y2="91.0284" gradientUnits="userSpaceOnUse">
<stop stop-color="#0DFF4D"/>
<stop offset="1" stop-color="#FFE605" stop-opacity="0.742865"/>
</linearGradient>
<clipPath id="clip0_562_1072">
<rect x="8" y="8" width="156" height="156" rx="78" fill="white"/>
</clipPath>
</defs>
</svg>
